%
M48
M72
T01C0.0236
T02C0.0315
T03C0.0400
T04C0.0630
%
T01
X5150Y7896
X3250Y8396
X3150Y9396
X4050Y9496
X5150Y9496
X2650Y9896
X1150Y10196
X1750Y10896
X850Y9496
X6150Y11896
X5650Y12396
X4350Y12896
X7650Y10896
X7950Y10196
X14750Y8196
X15150Y8296
X15550Y8196
X19650Y9396
X22150Y10396
X26650Y11796
X29150Y8796
X22150Y6396
X19150Y13096
X14350Y13596
T02
X3276Y5065
X4063Y5065
X4851Y5065
X5638Y5065
X6426Y5065
X7213Y5065
X8000Y5065
X8788Y5065
X9575Y5065
X10363Y5065
X10363Y13727
X9575Y13727
X8788Y13727
X8000Y13727
X7213Y13727
X6426Y13727
X5638Y13727
X4851Y13727
X4063Y13727
X3276Y13727
T03
X12150Y13896
X13150Y13896
X13150Y12896
X12150Y12896
X12150Y11896
X13150Y11896
X12150Y9896
X12150Y8896
X12150Y7896
X13650Y7896
X13650Y6896
X12150Y6896
X12150Y5896
X13650Y5896
X13650Y4896
X12150Y4896
X18200Y6446
X18200Y8406
X18200Y10386
X18200Y12346
X24100Y12346
X29050Y12346
X29050Y6446
X24100Y6446
T04
X26650Y5396
X30250Y5196
X32150Y7146
X32150Y8646
X32150Y10146
X32150Y11646
X26650Y13396
M30
