G75*
%MOIN*%
%OFA0B0*%
%FSLAX24Y24*%
%IPPOS*%
%LPD*%
%AMOC8*
5,1,8,0,0,1.08239X$1,22.5*
%
%ADD10C,0.1340*%
%ADD11C,0.0500*%
%ADD12C,0.0474*%
%ADD13R,0.0560X0.0960*%
%ADD14R,0.1497X0.0946*%
%ADD15R,0.0395X0.0631*%
%ADD16C,0.0660*%
%ADD17R,0.0394X0.0630*%
%ADD18R,0.0631X0.0710*%
%ADD19R,0.0395X0.0395*%
%ADD20R,0.0513X0.0474*%
%ADD21R,0.0474X0.0513*%
%ADD22R,0.0710X0.0540*%
%ADD23R,0.0720X0.0060*%
%ADD24OC8,0.0680*%
%ADD25C,0.0595*%
%ADD26R,0.0356X0.0749*%
%ADD27C,0.0680*%
%ADD28R,0.0631X0.0631*%
%ADD29C,0.0336*%
%ADD30C,0.0680*%
%ADD31R,0.0552X0.0552*%
%ADD32R,0.0277X0.0671*%
%ADD33R,0.0671X0.0277*%
%ADD34R,0.0960X0.0560*%
%ADD35R,0.0946X0.1497*%
%ADD36R,0.0678X0.0781*%
%ADD37OC8,0.0930*%
%ADD38R,0.0680X0.0680*%
%ADD39C,0.1230*%
D10*
X001150Y005396D03*
X001150Y013396D03*
X032150Y013396D03*
X032150Y005396D03*
D11*
X029996Y013496D02*
X029998Y013533D01*
X030004Y013570D01*
X030013Y013605D01*
X030027Y013640D01*
X030043Y013673D01*
X030064Y013704D01*
X030087Y013733D01*
X030113Y013759D01*
X030142Y013782D01*
X030173Y013803D01*
X030206Y013819D01*
X030241Y013833D01*
X030276Y013842D01*
X030313Y013848D01*
X030350Y013850D01*
X030387Y013848D01*
X030424Y013842D01*
X030459Y013833D01*
X030494Y013819D01*
X030527Y013803D01*
X030558Y013782D01*
X030587Y013759D01*
X030613Y013733D01*
X030636Y013704D01*
X030657Y013673D01*
X030673Y013640D01*
X030687Y013605D01*
X030696Y013570D01*
X030702Y013533D01*
X030704Y013496D01*
X030702Y013459D01*
X030696Y013422D01*
X030687Y013387D01*
X030673Y013352D01*
X030657Y013319D01*
X030636Y013288D01*
X030613Y013259D01*
X030587Y013233D01*
X030558Y013210D01*
X030527Y013189D01*
X030494Y013173D01*
X030459Y013159D01*
X030424Y013150D01*
X030387Y013144D01*
X030350Y013142D01*
X030313Y013144D01*
X030276Y013150D01*
X030241Y013159D01*
X030206Y013173D01*
X030173Y013189D01*
X030142Y013210D01*
X030113Y013233D01*
X030087Y013259D01*
X030064Y013288D01*
X030043Y013319D01*
X030027Y013352D01*
X030013Y013387D01*
X030004Y013422D01*
X029998Y013459D01*
X029996Y013496D01*
X007446Y009096D02*
X007448Y009133D01*
X007454Y009170D01*
X007463Y009205D01*
X007477Y009240D01*
X007493Y009273D01*
X007514Y009304D01*
X007537Y009333D01*
X007563Y009359D01*
X007592Y009382D01*
X007623Y009403D01*
X007656Y009419D01*
X007691Y009433D01*
X007726Y009442D01*
X007763Y009448D01*
X007800Y009450D01*
X007837Y009448D01*
X007874Y009442D01*
X007909Y009433D01*
X007944Y009419D01*
X007977Y009403D01*
X008008Y009382D01*
X008037Y009359D01*
X008063Y009333D01*
X008086Y009304D01*
X008107Y009273D01*
X008123Y009240D01*
X008137Y009205D01*
X008146Y009170D01*
X008152Y009133D01*
X008154Y009096D01*
X008152Y009059D01*
X008146Y009022D01*
X008137Y008987D01*
X008123Y008952D01*
X008107Y008919D01*
X008086Y008888D01*
X008063Y008859D01*
X008037Y008833D01*
X008008Y008810D01*
X007977Y008789D01*
X007944Y008773D01*
X007909Y008759D01*
X007874Y008750D01*
X007837Y008744D01*
X007800Y008742D01*
X007763Y008744D01*
X007726Y008750D01*
X007691Y008759D01*
X007656Y008773D01*
X007623Y008789D01*
X007592Y008810D01*
X007563Y008833D01*
X007537Y008859D01*
X007514Y008888D01*
X007493Y008919D01*
X007477Y008952D01*
X007463Y008987D01*
X007454Y009022D01*
X007448Y009059D01*
X007446Y009096D01*
X000767Y011708D02*
X000769Y011745D01*
X000775Y011782D01*
X000784Y011817D01*
X000798Y011852D01*
X000814Y011885D01*
X000835Y011916D01*
X000858Y011945D01*
X000884Y011971D01*
X000913Y011994D01*
X000944Y012015D01*
X000977Y012031D01*
X001012Y012045D01*
X001047Y012054D01*
X001084Y012060D01*
X001121Y012062D01*
X001158Y012060D01*
X001195Y012054D01*
X001230Y012045D01*
X001265Y012031D01*
X001298Y012015D01*
X001329Y011994D01*
X001358Y011971D01*
X001384Y011945D01*
X001407Y011916D01*
X001428Y011885D01*
X001444Y011852D01*
X001458Y011817D01*
X001467Y011782D01*
X001473Y011745D01*
X001475Y011708D01*
X001473Y011671D01*
X001467Y011634D01*
X001458Y011599D01*
X001444Y011564D01*
X001428Y011531D01*
X001407Y011500D01*
X001384Y011471D01*
X001358Y011445D01*
X001329Y011422D01*
X001298Y011401D01*
X001265Y011385D01*
X001230Y011371D01*
X001195Y011362D01*
X001158Y011356D01*
X001121Y011354D01*
X001084Y011356D01*
X001047Y011362D01*
X001012Y011371D01*
X000977Y011385D01*
X000944Y011401D01*
X000913Y011422D01*
X000884Y011445D01*
X000858Y011471D01*
X000835Y011500D01*
X000814Y011531D01*
X000798Y011564D01*
X000784Y011599D01*
X000775Y011634D01*
X000769Y011671D01*
X000767Y011708D01*
D12*
X001121Y011708D03*
X007800Y009096D03*
X030350Y013496D03*
D13*
X016560Y009726D03*
X015650Y009726D03*
X014740Y009726D03*
D14*
X015650Y012166D03*
D15*
X015050Y010446D03*
X016250Y010446D03*
D16*
X015760Y011138D02*
X015540Y011138D01*
X015540Y011994D01*
X015760Y011994D01*
X015760Y011138D01*
X015760Y011797D02*
X015540Y011797D01*
D17*
X015650Y010417D03*
D18*
X015099Y013596D03*
X016201Y013596D03*
D19*
X019855Y013696D03*
X020445Y013696D03*
X013650Y009691D03*
X013650Y009101D03*
X008150Y012101D03*
X008150Y012691D03*
X000850Y007591D03*
X000850Y007001D03*
X019855Y005096D03*
X020445Y005096D03*
D20*
X018485Y005096D03*
X017815Y005096D03*
X017815Y007396D03*
X018485Y007396D03*
X018485Y009396D03*
X017815Y009396D03*
X013485Y010896D03*
X012815Y010896D03*
X009985Y012596D03*
X009315Y012596D03*
X017815Y013696D03*
X018485Y013696D03*
X023315Y013496D03*
X023985Y013496D03*
X018485Y011396D03*
X017815Y011396D03*
X023315Y009396D03*
X023985Y009396D03*
X007485Y006396D03*
X006815Y006396D03*
D21*
X009250Y008062D03*
X009250Y008731D03*
X007150Y012062D03*
X007150Y012731D03*
X000850Y008931D03*
X000850Y008262D03*
X030150Y008062D03*
X030150Y008731D03*
X030150Y010062D03*
X030150Y010731D03*
D22*
X010650Y008696D03*
X010650Y008096D03*
D23*
X010650Y008396D03*
D24*
X012150Y011896D03*
X013150Y011896D03*
X013150Y012896D03*
X012150Y012896D03*
X012150Y013896D03*
X013150Y013896D03*
D25*
X003276Y005323D02*
X003276Y004808D01*
X004063Y004808D02*
X004063Y005323D01*
X004851Y005323D02*
X004851Y004808D01*
X005638Y004808D02*
X005638Y005323D01*
X006426Y005323D02*
X006426Y004808D01*
X007213Y004808D02*
X007213Y005323D01*
X008000Y005323D02*
X008000Y004808D01*
X008788Y004808D02*
X008788Y005323D01*
X009575Y005323D02*
X009575Y004808D01*
X010363Y004808D02*
X010363Y005323D01*
X010363Y013469D02*
X010363Y013984D01*
X009575Y013984D02*
X009575Y013469D01*
X008788Y013469D02*
X008788Y013984D01*
X008000Y013984D02*
X008000Y013469D01*
X007213Y013469D02*
X007213Y013984D01*
X006426Y013984D02*
X006426Y013469D01*
X005638Y013469D02*
X005638Y013984D01*
X004851Y013984D02*
X004851Y013469D01*
X004063Y013469D02*
X004063Y013984D01*
X003276Y013984D02*
X003276Y013469D01*
D26*
X003178Y012196D03*
X003650Y012196D03*
X004122Y012196D03*
D27*
X012150Y009896D03*
X012150Y008896D03*
X012150Y007896D03*
X012150Y006896D03*
X013650Y006896D03*
X013650Y005896D03*
X012150Y005896D03*
X012150Y004896D03*
X013650Y004896D03*
D28*
X010657Y010896D03*
X009043Y010896D03*
D29*
X009850Y010542D03*
X009850Y011250D03*
D30*
X017900Y010386D02*
X018500Y010386D01*
X018500Y012346D02*
X017900Y012346D01*
X024100Y012046D02*
X024100Y012646D01*
X018500Y008406D02*
X017900Y008406D01*
X017900Y006446D02*
X018500Y006446D01*
X024100Y006146D02*
X024100Y006746D01*
D31*
X016162Y007597D03*
X015138Y007597D03*
X015138Y005195D03*
X016162Y005195D03*
D32*
X005725Y006613D03*
X005410Y006613D03*
X005095Y006613D03*
X004780Y006613D03*
X004465Y006613D03*
X004150Y006613D03*
X003835Y006613D03*
X003520Y006613D03*
X003205Y006613D03*
X002890Y006613D03*
X002575Y006613D03*
X002575Y011180D03*
X002890Y011180D03*
X003205Y011180D03*
X003520Y011180D03*
X003835Y011180D03*
X004150Y011180D03*
X004465Y011180D03*
X004780Y011180D03*
X005095Y011180D03*
X005410Y011180D03*
X005725Y011180D03*
D33*
X006433Y010471D03*
X006433Y010156D03*
X006433Y009841D03*
X006433Y009526D03*
X006433Y009211D03*
X006433Y008896D03*
X006433Y008581D03*
X006433Y008266D03*
X006433Y007951D03*
X006433Y007636D03*
X006433Y007321D03*
X001867Y007321D03*
X001867Y007636D03*
X001867Y007951D03*
X001867Y008266D03*
X001867Y008581D03*
X001867Y008896D03*
X001867Y009211D03*
X001867Y009526D03*
X001867Y009841D03*
X001867Y010156D03*
X001867Y010471D03*
D34*
X027870Y010896D03*
X027870Y009986D03*
X027870Y008806D03*
X027870Y007896D03*
X027870Y006986D03*
X027870Y011806D03*
D35*
X025430Y010896D03*
X025430Y007896D03*
D36*
X022979Y007396D03*
X022979Y006396D03*
X019321Y006396D03*
X019321Y007396D03*
X019321Y008396D03*
X022979Y008396D03*
X022979Y010396D03*
X022979Y011396D03*
X022979Y012396D03*
X019321Y012396D03*
X019321Y011396D03*
X019321Y010396D03*
D37*
X029050Y012346D03*
X029050Y006446D03*
D38*
X013650Y007896D03*
D39*
X026650Y005396D03*
X030250Y005196D03*
X032150Y007146D03*
X032150Y008646D03*
X032150Y010146D03*
X032150Y011646D03*
X026650Y013396D03*
M02*
