G75*
%MOIN*%
%OFA0B0*%
%FSLAX24Y24*%
%IPPOS*%
%LPD*%
%AMOC8*
5,1,8,0,0,1.08239X$1,22.5*
%
%ADD10C,0.0180*%
%ADD11C,0.0080*%
%ADD12C,0.0100*%
%ADD13C,0.0070*%
%ADD14C,0.0050*%
%ADD15R,0.0750X0.3000*%
%ADD16R,0.0750X0.2100*%
%ADD17C,0.0160*%
%ADD18C,0.0060*%
D10*
X027563Y004896D02*
X027563Y005717D01*
X028110Y005717D02*
X027563Y004896D01*
X028110Y004896D02*
X028110Y005717D01*
X028763Y005617D02*
X029310Y005617D01*
X029310Y004796D01*
X028763Y004796D01*
X029036Y005206D02*
X029310Y005206D01*
X028110Y013096D02*
X028110Y013643D01*
X027836Y013917D01*
X027563Y013643D01*
X027563Y013096D01*
X027563Y013506D02*
X028110Y013506D01*
D11*
X010855Y004573D02*
X002784Y004573D01*
X002784Y005558D01*
X010855Y005558D01*
X010855Y004573D01*
X011150Y004573D01*
X011150Y014219D01*
X010855Y014219D01*
X010855Y013235D01*
X002784Y013235D01*
X002784Y014219D01*
X010855Y014219D01*
X000520Y011640D02*
X000284Y011365D01*
X000284Y007428D01*
X000520Y007152D01*
D12*
X016650Y005346D02*
X016650Y013446D01*
X016652Y013490D01*
X016658Y013533D01*
X016667Y013575D01*
X016680Y013617D01*
X016697Y013657D01*
X016717Y013696D01*
X016740Y013733D01*
X016767Y013767D01*
X016796Y013800D01*
X016829Y013829D01*
X016863Y013856D01*
X016900Y013879D01*
X016939Y013899D01*
X016979Y013916D01*
X017021Y013929D01*
X017063Y013938D01*
X017106Y013944D01*
X017150Y013946D01*
X025150Y013946D01*
X025194Y013944D01*
X025237Y013938D01*
X025279Y013929D01*
X025321Y013916D01*
X025361Y013899D01*
X025400Y013879D01*
X025437Y013856D01*
X025471Y013829D01*
X025504Y013800D01*
X025533Y013767D01*
X025560Y013733D01*
X025583Y013696D01*
X025603Y013657D01*
X025620Y013617D01*
X025633Y013575D01*
X025642Y013533D01*
X025648Y013490D01*
X025650Y013446D01*
X025650Y005346D01*
X025648Y005302D01*
X025642Y005259D01*
X025633Y005217D01*
X025620Y005175D01*
X025603Y005135D01*
X025583Y005096D01*
X025560Y005059D01*
X025533Y005025D01*
X025504Y004992D01*
X025471Y004963D01*
X025437Y004936D01*
X025400Y004913D01*
X025361Y004893D01*
X025321Y004876D01*
X025279Y004863D01*
X025237Y004854D01*
X025194Y004848D01*
X025150Y004846D01*
X017150Y004846D01*
X017106Y004848D01*
X017063Y004854D01*
X017021Y004863D01*
X016979Y004876D01*
X016939Y004893D01*
X016900Y004913D01*
X016863Y004936D01*
X016829Y004963D01*
X016796Y004992D01*
X016767Y005025D01*
X016740Y005059D01*
X016717Y005096D01*
X016697Y005135D01*
X016680Y005175D01*
X016667Y005217D01*
X016658Y005259D01*
X016652Y005302D01*
X016650Y005346D01*
X017150Y006396D02*
X017400Y006396D01*
X017150Y006396D02*
X017120Y006398D01*
X017090Y006403D01*
X017061Y006412D01*
X017034Y006425D01*
X017008Y006440D01*
X016984Y006459D01*
X016963Y006480D01*
X016944Y006504D01*
X016929Y006530D01*
X016916Y006557D01*
X016907Y006586D01*
X016902Y006616D01*
X016900Y006646D01*
X016900Y012146D01*
X016902Y012176D01*
X016907Y012206D01*
X016916Y012235D01*
X016929Y012262D01*
X016944Y012288D01*
X016963Y012312D01*
X016984Y012333D01*
X017008Y012352D01*
X017034Y012367D01*
X017061Y012380D01*
X017090Y012389D01*
X017120Y012394D01*
X017150Y012396D01*
X017400Y012396D01*
X019000Y012396D02*
X023300Y012396D01*
X024900Y012396D02*
X025150Y012396D01*
X025180Y012394D01*
X025210Y012389D01*
X025239Y012380D01*
X025266Y012367D01*
X025292Y012352D01*
X025316Y012333D01*
X025337Y012312D01*
X025356Y012288D01*
X025371Y012262D01*
X025384Y012235D01*
X025393Y012206D01*
X025398Y012176D01*
X025400Y012146D01*
X025400Y006646D01*
X025398Y006616D01*
X025393Y006586D01*
X025384Y006557D01*
X025371Y006530D01*
X025356Y006504D01*
X025337Y006480D01*
X025316Y006459D01*
X025292Y006440D01*
X025266Y006425D01*
X025239Y006412D01*
X025210Y006403D01*
X025180Y006398D01*
X025150Y006396D01*
X024900Y006396D01*
X023300Y006396D02*
X019000Y006396D01*
X019150Y006896D02*
X019152Y006927D01*
X019158Y006958D01*
X019168Y006988D01*
X019181Y007016D01*
X019198Y007043D01*
X019218Y007067D01*
X019241Y007089D01*
X019266Y007107D01*
X019294Y007122D01*
X019323Y007134D01*
X019353Y007142D01*
X019384Y007146D01*
X019416Y007146D01*
X019447Y007142D01*
X019477Y007134D01*
X019506Y007122D01*
X019534Y007107D01*
X019559Y007089D01*
X019582Y007067D01*
X019602Y007043D01*
X019619Y007016D01*
X019632Y006988D01*
X019642Y006958D01*
X019648Y006927D01*
X019650Y006896D01*
X019648Y006865D01*
X019642Y006834D01*
X019632Y006804D01*
X019619Y006776D01*
X019602Y006749D01*
X019582Y006725D01*
X019559Y006703D01*
X019534Y006685D01*
X019506Y006670D01*
X019477Y006658D01*
X019447Y006650D01*
X019416Y006646D01*
X019384Y006646D01*
X019353Y006650D01*
X019323Y006658D01*
X019294Y006670D01*
X019266Y006685D01*
X019241Y006703D01*
X019218Y006725D01*
X019198Y006749D01*
X019181Y006776D01*
X019168Y006804D01*
X019158Y006834D01*
X019152Y006865D01*
X019150Y006896D01*
X019650Y006896D02*
X020400Y006896D01*
X020400Y008996D01*
X019650Y008996D01*
X019150Y008996D02*
X019152Y009027D01*
X019158Y009058D01*
X019168Y009088D01*
X019181Y009116D01*
X019198Y009143D01*
X019218Y009167D01*
X019241Y009189D01*
X019266Y009207D01*
X019294Y009222D01*
X019323Y009234D01*
X019353Y009242D01*
X019384Y009246D01*
X019416Y009246D01*
X019447Y009242D01*
X019477Y009234D01*
X019506Y009222D01*
X019534Y009207D01*
X019559Y009189D01*
X019582Y009167D01*
X019602Y009143D01*
X019619Y009116D01*
X019632Y009088D01*
X019642Y009058D01*
X019648Y009027D01*
X019650Y008996D01*
X019648Y008965D01*
X019642Y008934D01*
X019632Y008904D01*
X019619Y008876D01*
X019602Y008849D01*
X019582Y008825D01*
X019559Y008803D01*
X019534Y008785D01*
X019506Y008770D01*
X019477Y008758D01*
X019447Y008750D01*
X019416Y008746D01*
X019384Y008746D01*
X019353Y008750D01*
X019323Y008758D01*
X019294Y008770D01*
X019266Y008785D01*
X019241Y008803D01*
X019218Y008825D01*
X019198Y008849D01*
X019181Y008876D01*
X019168Y008904D01*
X019158Y008934D01*
X019152Y008965D01*
X019150Y008996D01*
X020400Y008996D02*
X021150Y008996D01*
X021150Y006896D01*
X020400Y006896D01*
X020000Y007196D02*
X020002Y007216D01*
X020008Y007234D01*
X020017Y007252D01*
X020029Y007267D01*
X020044Y007279D01*
X020062Y007288D01*
X020080Y007294D01*
X020100Y007296D01*
X020120Y007294D01*
X020138Y007288D01*
X020156Y007279D01*
X020171Y007267D01*
X020183Y007252D01*
X020192Y007234D01*
X020198Y007216D01*
X020200Y007196D01*
X020198Y007176D01*
X020192Y007158D01*
X020183Y007140D01*
X020171Y007125D01*
X020156Y007113D01*
X020138Y007104D01*
X020120Y007098D01*
X020100Y007096D01*
X020080Y007098D01*
X020062Y007104D01*
X020044Y007113D01*
X020029Y007125D01*
X020017Y007140D01*
X020008Y007158D01*
X020002Y007176D01*
X020000Y007196D01*
X021650Y006896D02*
X021650Y011896D01*
X021150Y011896D02*
X020400Y011896D01*
X019650Y011896D01*
X019150Y011896D02*
X019152Y011927D01*
X019158Y011958D01*
X019168Y011988D01*
X019181Y012016D01*
X019198Y012043D01*
X019218Y012067D01*
X019241Y012089D01*
X019266Y012107D01*
X019294Y012122D01*
X019323Y012134D01*
X019353Y012142D01*
X019384Y012146D01*
X019416Y012146D01*
X019447Y012142D01*
X019477Y012134D01*
X019506Y012122D01*
X019534Y012107D01*
X019559Y012089D01*
X019582Y012067D01*
X019602Y012043D01*
X019619Y012016D01*
X019632Y011988D01*
X019642Y011958D01*
X019648Y011927D01*
X019650Y011896D01*
X019648Y011865D01*
X019642Y011834D01*
X019632Y011804D01*
X019619Y011776D01*
X019602Y011749D01*
X019582Y011725D01*
X019559Y011703D01*
X019534Y011685D01*
X019506Y011670D01*
X019477Y011658D01*
X019447Y011650D01*
X019416Y011646D01*
X019384Y011646D01*
X019353Y011650D01*
X019323Y011658D01*
X019294Y011670D01*
X019266Y011685D01*
X019241Y011703D01*
X019218Y011725D01*
X019198Y011749D01*
X019181Y011776D01*
X019168Y011804D01*
X019158Y011834D01*
X019152Y011865D01*
X019150Y011896D01*
X020400Y011896D02*
X020400Y009796D01*
X019650Y009796D01*
X019150Y009796D02*
X019152Y009827D01*
X019158Y009858D01*
X019168Y009888D01*
X019181Y009916D01*
X019198Y009943D01*
X019218Y009967D01*
X019241Y009989D01*
X019266Y010007D01*
X019294Y010022D01*
X019323Y010034D01*
X019353Y010042D01*
X019384Y010046D01*
X019416Y010046D01*
X019447Y010042D01*
X019477Y010034D01*
X019506Y010022D01*
X019534Y010007D01*
X019559Y009989D01*
X019582Y009967D01*
X019602Y009943D01*
X019619Y009916D01*
X019632Y009888D01*
X019642Y009858D01*
X019648Y009827D01*
X019650Y009796D01*
X019648Y009765D01*
X019642Y009734D01*
X019632Y009704D01*
X019619Y009676D01*
X019602Y009649D01*
X019582Y009625D01*
X019559Y009603D01*
X019534Y009585D01*
X019506Y009570D01*
X019477Y009558D01*
X019447Y009550D01*
X019416Y009546D01*
X019384Y009546D01*
X019353Y009550D01*
X019323Y009558D01*
X019294Y009570D01*
X019266Y009585D01*
X019241Y009603D01*
X019218Y009625D01*
X019198Y009649D01*
X019181Y009676D01*
X019168Y009704D01*
X019158Y009734D01*
X019152Y009765D01*
X019150Y009796D01*
X020000Y010096D02*
X020002Y010116D01*
X020008Y010134D01*
X020017Y010152D01*
X020029Y010167D01*
X020044Y010179D01*
X020062Y010188D01*
X020080Y010194D01*
X020100Y010196D01*
X020120Y010194D01*
X020138Y010188D01*
X020156Y010179D01*
X020171Y010167D01*
X020183Y010152D01*
X020192Y010134D01*
X020198Y010116D01*
X020200Y010096D01*
X020198Y010076D01*
X020192Y010058D01*
X020183Y010040D01*
X020171Y010025D01*
X020156Y010013D01*
X020138Y010004D01*
X020120Y009998D01*
X020100Y009996D01*
X020080Y009998D01*
X020062Y010004D01*
X020044Y010013D01*
X020029Y010025D01*
X020017Y010040D01*
X020008Y010058D01*
X020002Y010076D01*
X020000Y010096D01*
X020400Y009796D02*
X021150Y009796D01*
X021150Y011896D01*
X022150Y010896D02*
X022900Y010896D01*
X023650Y010896D01*
X023652Y010927D01*
X023658Y010958D01*
X023668Y010988D01*
X023681Y011016D01*
X023698Y011043D01*
X023718Y011067D01*
X023741Y011089D01*
X023766Y011107D01*
X023794Y011122D01*
X023823Y011134D01*
X023853Y011142D01*
X023884Y011146D01*
X023916Y011146D01*
X023947Y011142D01*
X023977Y011134D01*
X024006Y011122D01*
X024034Y011107D01*
X024059Y011089D01*
X024082Y011067D01*
X024102Y011043D01*
X024119Y011016D01*
X024132Y010988D01*
X024142Y010958D01*
X024148Y010927D01*
X024150Y010896D01*
X024148Y010865D01*
X024142Y010834D01*
X024132Y010804D01*
X024119Y010776D01*
X024102Y010749D01*
X024082Y010725D01*
X024059Y010703D01*
X024034Y010685D01*
X024006Y010670D01*
X023977Y010658D01*
X023947Y010650D01*
X023916Y010646D01*
X023884Y010646D01*
X023853Y010650D01*
X023823Y010658D01*
X023794Y010670D01*
X023766Y010685D01*
X023741Y010703D01*
X023718Y010725D01*
X023698Y010749D01*
X023681Y010776D01*
X023668Y010804D01*
X023658Y010834D01*
X023652Y010865D01*
X023650Y010896D01*
X022900Y010896D02*
X022900Y007896D01*
X023650Y007896D01*
X023652Y007927D01*
X023658Y007958D01*
X023668Y007988D01*
X023681Y008016D01*
X023698Y008043D01*
X023718Y008067D01*
X023741Y008089D01*
X023766Y008107D01*
X023794Y008122D01*
X023823Y008134D01*
X023853Y008142D01*
X023884Y008146D01*
X023916Y008146D01*
X023947Y008142D01*
X023977Y008134D01*
X024006Y008122D01*
X024034Y008107D01*
X024059Y008089D01*
X024082Y008067D01*
X024102Y008043D01*
X024119Y008016D01*
X024132Y007988D01*
X024142Y007958D01*
X024148Y007927D01*
X024150Y007896D01*
X024148Y007865D01*
X024142Y007834D01*
X024132Y007804D01*
X024119Y007776D01*
X024102Y007749D01*
X024082Y007725D01*
X024059Y007703D01*
X024034Y007685D01*
X024006Y007670D01*
X023977Y007658D01*
X023947Y007650D01*
X023916Y007646D01*
X023884Y007646D01*
X023853Y007650D01*
X023823Y007658D01*
X023794Y007670D01*
X023766Y007685D01*
X023741Y007703D01*
X023718Y007725D01*
X023698Y007749D01*
X023681Y007776D01*
X023668Y007804D01*
X023658Y007834D01*
X023652Y007865D01*
X023650Y007896D01*
X023100Y008196D02*
X023102Y008216D01*
X023108Y008234D01*
X023117Y008252D01*
X023129Y008267D01*
X023144Y008279D01*
X023162Y008288D01*
X023180Y008294D01*
X023200Y008296D01*
X023220Y008294D01*
X023238Y008288D01*
X023256Y008279D01*
X023271Y008267D01*
X023283Y008252D01*
X023292Y008234D01*
X023298Y008216D01*
X023300Y008196D01*
X023298Y008176D01*
X023292Y008158D01*
X023283Y008140D01*
X023271Y008125D01*
X023256Y008113D01*
X023238Y008104D01*
X023220Y008098D01*
X023200Y008096D01*
X023180Y008098D01*
X023162Y008104D01*
X023144Y008113D01*
X023129Y008125D01*
X023117Y008140D01*
X023108Y008158D01*
X023102Y008176D01*
X023100Y008196D01*
X022900Y007896D02*
X022150Y007896D01*
X022150Y010896D01*
D13*
X019766Y011081D02*
X019660Y010976D01*
X019766Y011081D02*
X019766Y011291D01*
X019660Y011396D01*
X019555Y011396D01*
X019135Y010976D01*
X019135Y011396D01*
X019240Y010752D02*
X019135Y010646D01*
X019135Y010436D01*
X019240Y010331D01*
X019450Y010436D02*
X019450Y010646D01*
X019345Y010752D01*
X019240Y010752D01*
X019660Y010752D02*
X019766Y010646D01*
X019766Y010436D01*
X019660Y010331D01*
X019555Y010331D01*
X019450Y010436D01*
X023200Y009081D02*
X023620Y009081D01*
X023410Y009081D02*
X023410Y009712D01*
X023620Y009502D01*
X023845Y009607D02*
X023845Y009396D01*
X023950Y009291D01*
X024265Y009291D01*
X024265Y009081D02*
X024265Y009712D01*
X023950Y009712D01*
X023845Y009607D01*
X019766Y008186D02*
X019135Y008186D01*
X019135Y007976D02*
X019135Y008396D01*
X019555Y007976D02*
X019766Y008186D01*
X019660Y007752D02*
X019766Y007646D01*
X019766Y007436D01*
X019660Y007331D01*
X019555Y007331D01*
X019450Y007436D01*
X019450Y007646D01*
X019345Y007752D01*
X019240Y007752D01*
X019135Y007646D01*
X019135Y007436D01*
X019240Y007331D01*
X020716Y005762D02*
X020611Y005657D01*
X021031Y005236D01*
X020926Y005131D01*
X020716Y005131D01*
X020611Y005236D01*
X020611Y005657D01*
X020716Y005762D02*
X020926Y005762D01*
X021031Y005657D01*
X021031Y005236D01*
X021256Y005131D02*
X021676Y005131D01*
X021256Y005552D01*
X021256Y005657D01*
X021361Y005762D01*
X021571Y005762D01*
X021676Y005657D01*
X021900Y005762D02*
X022320Y005762D01*
X022320Y005131D01*
X021900Y005131D01*
X022110Y005446D02*
X022320Y005446D01*
X022755Y005446D02*
X022965Y005446D01*
X022965Y005131D02*
X022545Y005131D01*
X022965Y005131D02*
X022965Y005762D01*
X022545Y005762D01*
D14*
X024825Y005646D02*
X025125Y005646D01*
X024900Y005872D01*
X024900Y005421D01*
X017375Y005496D02*
X017300Y005421D01*
X017150Y005421D01*
X017075Y005496D01*
X017075Y005646D01*
X017150Y005721D01*
X017225Y005721D01*
X017375Y005646D01*
X017375Y005872D01*
X017075Y005872D01*
X017150Y012921D02*
X017300Y012921D01*
X017375Y012996D01*
X017375Y013071D01*
X017300Y013146D01*
X017150Y013146D01*
X017075Y013071D01*
X017075Y012996D01*
X017150Y012921D01*
X017150Y013146D02*
X017075Y013221D01*
X017075Y013296D01*
X017150Y013372D01*
X017300Y013372D01*
X017375Y013296D01*
X017375Y013221D01*
X017300Y013146D01*
X024825Y012921D02*
X025125Y012921D01*
X024975Y012921D02*
X024975Y013372D01*
X025125Y013221D01*
D15*
X022525Y009396D03*
D16*
X020775Y007946D03*
X020775Y010846D03*
D17*
X028550Y011046D02*
X029050Y011046D01*
X029550Y011046D01*
X029550Y011396D02*
X029050Y011396D01*
X028550Y011396D01*
D18*
X029050Y011396D02*
X029050Y011796D01*
X029050Y011046D02*
X029050Y006996D01*
X027500Y005846D02*
X027474Y005848D01*
X027448Y005853D01*
X027423Y005861D01*
X027400Y005873D01*
X027378Y005887D01*
X027359Y005905D01*
X027341Y005924D01*
X027327Y005946D01*
X027315Y005969D01*
X027307Y005994D01*
X027302Y006020D01*
X027300Y006046D01*
X027300Y012746D01*
X027302Y012772D01*
X027307Y012798D01*
X027315Y012823D01*
X027327Y012846D01*
X027341Y012868D01*
X027359Y012887D01*
X027378Y012905D01*
X027400Y012919D01*
X027423Y012931D01*
X027448Y012939D01*
X027474Y012944D01*
X027500Y012946D01*
X030600Y012946D01*
X030626Y012944D01*
X030652Y012939D01*
X030677Y012931D01*
X030700Y012919D01*
X030722Y012905D01*
X030741Y012887D01*
X030759Y012868D01*
X030773Y012846D01*
X030785Y012823D01*
X030793Y012798D01*
X030798Y012772D01*
X030800Y012746D01*
X030800Y006046D01*
X030798Y006020D01*
X030793Y005994D01*
X030785Y005969D01*
X030773Y005946D01*
X030759Y005924D01*
X030741Y005905D01*
X030722Y005887D01*
X030700Y005873D01*
X030677Y005861D01*
X030652Y005853D01*
X030626Y005848D01*
X030600Y005846D01*
X027500Y005846D01*
M02*
