G75*
%MOIN*%
%OFA0B0*%
%FSLAX24Y24*%
%IPPOS*%
%LPD*%
%AMOC8*
5,1,8,0,0,1.08239X$1,22.5*
%
%ADD10C,0.0394*%
%ADD11R,0.0480X0.0880*%
%ADD12R,0.1417X0.0866*%
%ADD13R,0.0315X0.0551*%
%ADD14R,0.0315X0.0748*%
%ADD15C,0.0600*%
%ADD16R,0.0551X0.0630*%
%ADD17R,0.0315X0.0315*%
%ADD18R,0.0433X0.0394*%
%ADD19R,0.0394X0.0433*%
%ADD20R,0.0630X0.0460*%
%ADD21C,0.0160*%
%ADD22OC8,0.0600*%
%ADD23C,0.0515*%
%ADD24R,0.0276X0.0669*%
%ADD25C,0.0600*%
%ADD26R,0.0551X0.0551*%
%ADD27R,0.0472X0.0472*%
%ADD28R,0.0197X0.0591*%
%ADD29R,0.0591X0.0197*%
%ADD30R,0.0880X0.0480*%
%ADD31R,0.0866X0.1417*%
%ADD32R,0.0598X0.0701*%
%ADD33OC8,0.0850*%
%ADD34R,0.0600X0.0600*%
%ADD35C,0.1150*%
%ADD36C,0.0120*%
%ADD37C,0.0356*%
%ADD38C,0.0100*%
%ADD39C,0.0320*%
D10*
X007800Y009096D03*
X001121Y011708D03*
X030350Y013496D03*
D11*
X016560Y009726D03*
X015650Y009726D03*
X014740Y009726D03*
D12*
X015650Y012166D03*
D13*
X015050Y010446D03*
X016250Y010446D03*
D14*
X015650Y010546D03*
D15*
X017900Y010386D02*
X018500Y010386D01*
X015750Y011148D02*
X015550Y011148D01*
X015550Y011984D01*
X015750Y011984D01*
X015750Y011148D01*
X015750Y011747D02*
X015550Y011747D01*
X017900Y012346D02*
X018500Y012346D01*
X024100Y012046D02*
X024100Y012646D01*
X018500Y008406D02*
X017900Y008406D01*
X017900Y006446D02*
X018500Y006446D01*
X024100Y006146D02*
X024100Y006746D01*
D16*
X016201Y013596D03*
X015099Y013596D03*
D17*
X019855Y013696D03*
X020445Y013696D03*
X013650Y009691D03*
X013650Y009101D03*
X008150Y012101D03*
X008150Y012691D03*
X000850Y007591D03*
X000850Y007001D03*
X019855Y005096D03*
X020445Y005096D03*
D18*
X018485Y005096D03*
X017815Y005096D03*
X017815Y007396D03*
X018485Y007396D03*
X018485Y009396D03*
X017815Y009396D03*
X013485Y010896D03*
X012815Y010896D03*
X009985Y012596D03*
X009315Y012596D03*
X017815Y013696D03*
X018485Y013696D03*
X023315Y013496D03*
X023985Y013496D03*
X018485Y011396D03*
X017815Y011396D03*
X023315Y009396D03*
X023985Y009396D03*
X007485Y006396D03*
X006815Y006396D03*
D19*
X009250Y008062D03*
X009250Y008731D03*
X007150Y012062D03*
X007150Y012731D03*
X000850Y008931D03*
X000850Y008262D03*
X030150Y008062D03*
X030150Y008731D03*
X030150Y010062D03*
X030150Y010731D03*
D20*
X010650Y008696D03*
X010650Y008096D03*
D21*
X010650Y008196D02*
X010650Y008596D01*
X013650Y007896D02*
X014650Y008896D01*
X015150Y008896D01*
X015650Y009396D01*
X015650Y009726D01*
X015650Y010546D01*
X016250Y010446D02*
X016560Y009726D01*
X016560Y009396D02*
X017815Y009396D01*
X019321Y008396D02*
X019650Y008725D01*
X019650Y009396D01*
X019321Y008396D02*
X020150Y008396D01*
X020445Y008101D01*
X020445Y005096D01*
X019855Y005096D02*
X018485Y005096D01*
X022150Y006396D02*
X022979Y006396D01*
X019321Y007396D02*
X018485Y007396D01*
X022979Y008396D02*
X022979Y009060D01*
X023315Y009396D01*
X024100Y009512D02*
X024100Y012346D01*
X024100Y013381D01*
X023315Y013496D02*
X022979Y013160D01*
X022979Y012396D01*
X020450Y012596D02*
X020450Y013691D01*
X019855Y013696D02*
X018485Y013696D01*
X019150Y013096D02*
X019150Y012567D01*
X019321Y012396D01*
X020250Y012396D01*
X020450Y012596D01*
X019321Y011396D02*
X018485Y011396D01*
X015650Y012166D02*
X015380Y012166D01*
X015150Y012396D01*
X014650Y012396D01*
X013150Y013896D01*
X004465Y011180D02*
X004465Y008596D01*
X004480Y008581D01*
X006433Y008581D01*
X004465Y008596D02*
X004465Y008205D01*
X003835Y007575D01*
X003071Y007575D01*
X002650Y007996D01*
X002650Y008696D01*
X002450Y008896D01*
X001867Y008896D01*
X000885Y008896D01*
X000850Y008931D01*
X000850Y009496D01*
X001867Y009841D02*
X002595Y009841D01*
X002650Y009896D01*
X001867Y010156D02*
X001410Y010156D01*
X001150Y010196D01*
X001725Y010471D02*
X001867Y010471D01*
X001750Y010471D01*
X001750Y010896D01*
X000850Y008262D02*
X000850Y007591D01*
X003835Y007575D02*
X003835Y006613D01*
X022150Y010396D02*
X022979Y010396D01*
X026650Y011796D02*
X027870Y011796D01*
X027870Y011806D01*
X027870Y012416D01*
X028650Y013196D01*
X029450Y013196D01*
X030150Y012496D01*
X030150Y010731D01*
X027870Y008806D02*
X027860Y008796D01*
X029150Y008796D01*
X030185Y008796D01*
X030150Y008731D01*
D22*
X013150Y011896D03*
X012150Y011896D03*
X012150Y012896D03*
X013150Y012896D03*
X013150Y013896D03*
X012150Y013896D03*
D23*
X010363Y013984D02*
X010363Y013469D01*
X009575Y013469D02*
X009575Y013984D01*
X008788Y013984D02*
X008788Y013469D01*
X008000Y013469D02*
X008000Y013984D01*
X007213Y013984D02*
X007213Y013469D01*
X006426Y013469D02*
X006426Y013984D01*
X005638Y013984D02*
X005638Y013469D01*
X004851Y013469D02*
X004851Y013984D01*
X004063Y013984D02*
X004063Y013469D01*
X003276Y013469D02*
X003276Y013984D01*
X003276Y005323D02*
X003276Y004808D01*
X004063Y004808D02*
X004063Y005323D01*
X004851Y005323D02*
X004851Y004808D01*
X005638Y004808D02*
X005638Y005323D01*
X006426Y005323D02*
X006426Y004808D01*
X007213Y004808D02*
X007213Y005323D01*
X008000Y005323D02*
X008000Y004808D01*
X008788Y004808D02*
X008788Y005323D01*
X009575Y005323D02*
X009575Y004808D01*
X010363Y004808D02*
X010363Y005323D01*
D24*
X004122Y012196D03*
X003650Y012196D03*
X003178Y012196D03*
D25*
X012150Y009896D03*
X012150Y008896D03*
X012150Y007896D03*
X012150Y006896D03*
X013650Y006896D03*
X013650Y005896D03*
X012150Y005896D03*
X012150Y004896D03*
X013650Y004896D03*
D26*
X010657Y010896D03*
X009043Y010896D03*
D27*
X015138Y007597D03*
X016162Y007597D03*
X016162Y005195D03*
X015138Y005195D03*
D28*
X005725Y006613D03*
X005410Y006613D03*
X005095Y006613D03*
X004780Y006613D03*
X004465Y006613D03*
X004150Y006613D03*
X003835Y006613D03*
X003520Y006613D03*
X003205Y006613D03*
X002890Y006613D03*
X002575Y006613D03*
X002575Y011180D03*
X002890Y011180D03*
X003205Y011180D03*
X003520Y011180D03*
X003835Y011180D03*
X004150Y011180D03*
X004465Y011180D03*
X004780Y011180D03*
X005095Y011180D03*
X005410Y011180D03*
X005725Y011180D03*
D29*
X006433Y010471D03*
X006433Y010156D03*
X006433Y009841D03*
X006433Y009526D03*
X006433Y009211D03*
X006433Y008896D03*
X006433Y008581D03*
X006433Y008266D03*
X006433Y007951D03*
X006433Y007636D03*
X006433Y007321D03*
X001867Y007321D03*
X001867Y007636D03*
X001867Y007951D03*
X001867Y008266D03*
X001867Y008581D03*
X001867Y008896D03*
X001867Y009211D03*
X001867Y009526D03*
X001867Y009841D03*
X001867Y010156D03*
X001867Y010471D03*
D30*
X027870Y010896D03*
X027870Y009986D03*
X027870Y008806D03*
X027870Y007896D03*
X027870Y006986D03*
X027870Y011806D03*
D31*
X025430Y010896D03*
X025430Y007896D03*
D32*
X022979Y007396D03*
X022979Y006396D03*
X019321Y006396D03*
X019321Y007396D03*
X019321Y008396D03*
X022979Y008396D03*
X022979Y010396D03*
X022979Y011396D03*
X022979Y012396D03*
X019321Y012396D03*
X019321Y011396D03*
X019321Y010396D03*
D33*
X029050Y012346D03*
X029050Y006446D03*
D34*
X013650Y007896D03*
D35*
X026650Y005396D03*
X030250Y005196D03*
X032150Y007146D03*
X032150Y008646D03*
X032150Y010146D03*
X032150Y011646D03*
X026650Y013396D03*
D36*
X024100Y013381D02*
X023985Y013496D01*
X020450Y013691D02*
X020445Y013696D01*
X015650Y012166D02*
X015650Y011566D01*
X013650Y010731D02*
X013485Y010896D01*
X013650Y010731D02*
X013650Y009691D01*
X012150Y009896D02*
X011850Y009896D01*
X010650Y008696D01*
X010650Y008096D02*
X009185Y008096D01*
X009250Y008062D01*
X009250Y008731D02*
X009043Y008938D01*
X009043Y010896D01*
X008543Y011396D01*
X006950Y011396D01*
X006650Y011696D01*
X006650Y012596D01*
X006350Y012896D01*
X006350Y013096D01*
X006426Y013172D01*
X006426Y013727D01*
X007150Y013664D02*
X007150Y012731D01*
X006350Y012896D02*
X005150Y012896D01*
X004780Y012526D01*
X004780Y011180D01*
X005095Y011180D02*
X005095Y011841D01*
X005650Y012396D01*
X005650Y011896D02*
X005410Y011656D01*
X005410Y011180D01*
X005725Y011180D02*
X006467Y011180D01*
X006750Y010896D01*
X007650Y010896D01*
X009043Y010896D02*
X009043Y011896D01*
X012150Y011896D01*
X012650Y012396D02*
X012150Y012896D01*
X012650Y012396D02*
X012650Y011062D01*
X012815Y010896D01*
X010850Y012596D02*
X009985Y012596D01*
X009315Y012596D02*
X009043Y012324D01*
X009043Y011896D01*
X008150Y012101D02*
X007189Y012101D01*
X007150Y012062D01*
X006150Y011896D02*
X005650Y011896D01*
X004150Y011896D02*
X004150Y012369D01*
X004122Y012196D01*
X004150Y011896D02*
X003835Y011581D01*
X003835Y011180D01*
X003520Y011180D02*
X003520Y011526D01*
X003150Y011896D01*
X003150Y012369D01*
X003178Y012196D01*
X002575Y012621D02*
X002850Y012896D01*
X003650Y012896D01*
X004063Y013310D01*
X004063Y013727D01*
X002575Y012621D02*
X002575Y011180D01*
X002890Y011180D02*
X002890Y010456D01*
X003150Y010196D01*
X003150Y009396D01*
X003650Y008796D02*
X003650Y010096D01*
X003205Y010541D01*
X003205Y011180D01*
X003650Y008796D02*
X003250Y008396D01*
X006433Y008266D02*
X007280Y008266D01*
X008650Y006896D01*
X011150Y006896D01*
X011650Y007396D01*
X013150Y007396D01*
X013650Y006896D01*
X013150Y006396D02*
X008650Y006396D01*
X007095Y007951D01*
X006433Y007951D01*
X004465Y006613D02*
X004465Y006081D01*
X004550Y005996D01*
X006450Y005996D01*
X006515Y006062D01*
X006815Y006396D01*
X013150Y006396D02*
X013650Y005896D01*
X023985Y009396D02*
X024100Y009512D01*
X013150Y013896D02*
X012650Y013396D01*
X011650Y013396D01*
X010850Y012596D01*
X007213Y013727D02*
X007150Y013664D01*
D37*
X004350Y012896D03*
X005650Y012396D03*
X006150Y011896D03*
X007650Y010896D03*
X007950Y010196D03*
X005150Y009496D03*
X004050Y009496D03*
X003150Y009396D03*
X002650Y009896D03*
X001150Y010196D03*
X001750Y010896D03*
X000850Y009496D03*
X003250Y008396D03*
X005150Y007896D03*
X014750Y008196D03*
X015150Y008296D03*
X015550Y008196D03*
X019650Y009396D03*
X022150Y010396D03*
X026650Y011796D03*
X029150Y008796D03*
X022150Y006396D03*
X019150Y013096D03*
X014350Y013596D03*
D38*
X000762Y004626D02*
X000380Y004626D01*
X000380Y005008D01*
X000421Y004909D01*
X000663Y004667D01*
X000762Y004626D01*
X000638Y004692D02*
X000380Y004692D01*
X000380Y004790D02*
X000540Y004790D01*
X000441Y004889D02*
X000380Y004889D01*
X000380Y004987D02*
X000389Y004987D01*
X001538Y004626D02*
X001637Y004667D01*
X001879Y004909D01*
X002010Y005225D01*
X002010Y005567D01*
X001879Y005883D01*
X001637Y006125D01*
X001321Y006256D01*
X000979Y006256D01*
X000663Y006125D01*
X000421Y005883D01*
X000380Y005784D01*
X000380Y013008D01*
X000421Y012909D01*
X000663Y012667D01*
X000979Y012536D01*
X001321Y012536D01*
X001637Y012667D01*
X001879Y012909D01*
X002010Y013225D01*
X002010Y013567D01*
X001879Y013883D01*
X001637Y014125D01*
X001538Y014166D01*
X002932Y014166D01*
X002889Y014061D01*
X002889Y013392D01*
X002947Y013250D01*
X003056Y013141D01*
X003189Y013086D01*
X002771Y013086D01*
X002660Y012975D01*
X002385Y012700D01*
X002385Y011567D01*
X002347Y011529D01*
X002347Y010830D01*
X002423Y010754D01*
X002700Y010754D01*
X002700Y010377D01*
X002811Y010266D01*
X002811Y010266D01*
X002960Y010117D01*
X002960Y009642D01*
X002889Y009571D01*
X002842Y009457D01*
X002842Y009335D01*
X002889Y009222D01*
X002975Y009135D01*
X003089Y009088D01*
X003211Y009088D01*
X003325Y009135D01*
X003411Y009222D01*
X003458Y009335D01*
X003458Y009457D01*
X003411Y009571D01*
X003340Y009642D01*
X003340Y010137D01*
X003460Y010017D01*
X003460Y008875D01*
X003289Y008704D01*
X003189Y008704D01*
X003075Y008657D01*
X002989Y008571D01*
X002942Y008457D01*
X002942Y008335D01*
X002989Y008222D01*
X003075Y008135D01*
X003189Y008088D01*
X003311Y008088D01*
X003425Y008135D01*
X003511Y008222D01*
X003558Y008335D01*
X003558Y008436D01*
X003729Y008606D01*
X003840Y008717D01*
X003840Y010175D01*
X003395Y010620D01*
X003395Y010754D01*
X003672Y010754D01*
X003678Y010760D01*
X003683Y010754D01*
X003977Y010754D01*
X003994Y010745D01*
X004032Y010734D01*
X004150Y010734D01*
X004255Y010734D01*
X004255Y008292D01*
X003748Y007785D01*
X003158Y007785D01*
X002860Y008083D01*
X002860Y008783D01*
X002737Y008906D01*
X002660Y008983D01*
X002660Y008983D01*
X002537Y009106D01*
X002292Y009106D01*
X002292Y009363D01*
X002287Y009369D01*
X002292Y009374D01*
X002292Y009631D01*
X002485Y009631D01*
X002589Y009588D01*
X002711Y009588D01*
X002825Y009635D01*
X002911Y009722D01*
X002958Y009835D01*
X002958Y009957D01*
X002911Y010071D01*
X002825Y010157D01*
X002711Y010204D01*
X002589Y010204D01*
X002475Y010157D01*
X002389Y010071D01*
X002381Y010051D01*
X002292Y010051D01*
X002292Y010308D01*
X002287Y010313D01*
X002292Y010319D01*
X002292Y010623D01*
X002216Y010699D01*
X001989Y010699D01*
X002011Y010722D01*
X002058Y010835D01*
X002058Y010957D01*
X002011Y011071D01*
X001925Y011157D01*
X001811Y011204D01*
X001689Y011204D01*
X001575Y011157D01*
X001489Y011071D01*
X001442Y010957D01*
X001442Y010835D01*
X001489Y010722D01*
X001514Y010696D01*
X001441Y010623D01*
X001441Y010366D01*
X001426Y010366D01*
X001412Y010368D01*
X001411Y010371D01*
X001325Y010457D01*
X001211Y010504D01*
X001089Y010504D01*
X000975Y010457D01*
X000889Y010371D01*
X000842Y010257D01*
X000842Y010135D01*
X000889Y010022D01*
X000975Y009935D01*
X001089Y009888D01*
X001211Y009888D01*
X001325Y009935D01*
X001336Y009946D01*
X001394Y009946D01*
X001441Y009939D01*
X001441Y009689D01*
X001446Y009684D01*
X001441Y009678D01*
X001441Y009374D01*
X001446Y009369D01*
X001441Y009363D01*
X001441Y009106D01*
X001177Y009106D01*
X001177Y009201D01*
X001101Y009277D01*
X001067Y009277D01*
X001111Y009322D01*
X001158Y009435D01*
X001158Y009557D01*
X001111Y009671D01*
X001025Y009757D01*
X000911Y009804D01*
X000789Y009804D01*
X000675Y009757D01*
X000589Y009671D01*
X000542Y009557D01*
X000542Y009435D01*
X000589Y009322D01*
X000633Y009277D01*
X000599Y009277D01*
X000523Y009201D01*
X000523Y008660D01*
X000587Y008596D01*
X000523Y008532D01*
X000523Y007991D01*
X000599Y007915D01*
X000640Y007915D01*
X000640Y007879D01*
X000639Y007879D01*
X000563Y007803D01*
X000563Y007380D01*
X000639Y007304D01*
X000656Y007304D01*
X000635Y007298D01*
X000600Y007278D01*
X000572Y007250D01*
X000553Y007216D01*
X000543Y007178D01*
X000543Y007030D01*
X000821Y007030D01*
X000821Y006972D01*
X000543Y006972D01*
X000543Y006824D01*
X000553Y006785D01*
X000572Y006751D01*
X000600Y006723D01*
X000635Y006704D01*
X000673Y006693D01*
X000821Y006693D01*
X000821Y006972D01*
X000879Y006972D01*
X000879Y007030D01*
X001157Y007030D01*
X001157Y007178D01*
X001147Y007216D01*
X001128Y007250D01*
X001100Y007278D01*
X001065Y007298D01*
X001044Y007304D01*
X001061Y007304D01*
X001137Y007380D01*
X001137Y007803D01*
X001061Y007879D01*
X001060Y007879D01*
X001060Y007915D01*
X001101Y007915D01*
X001177Y007991D01*
X001177Y008532D01*
X001113Y008596D01*
X001177Y008660D01*
X001177Y008686D01*
X001421Y008686D01*
X001421Y008581D01*
X001421Y008463D01*
X001431Y008425D01*
X001441Y008408D01*
X001441Y008114D01*
X001446Y008109D01*
X001441Y008104D01*
X001441Y007799D01*
X001446Y007794D01*
X001441Y007789D01*
X001441Y007484D01*
X001446Y007479D01*
X001441Y007474D01*
X001441Y007169D01*
X001517Y007093D01*
X002216Y007093D01*
X002292Y007169D01*
X002292Y007474D01*
X002287Y007479D01*
X002292Y007484D01*
X002292Y007789D01*
X002287Y007794D01*
X002292Y007799D01*
X002292Y008104D01*
X002287Y008109D01*
X002292Y008114D01*
X002292Y008408D01*
X002302Y008425D01*
X002312Y008463D01*
X002312Y008581D01*
X001867Y008581D01*
X001867Y008581D01*
X002312Y008581D01*
X002312Y008686D01*
X002363Y008686D01*
X002440Y008609D01*
X002440Y007909D01*
X002563Y007786D01*
X002984Y007365D01*
X003625Y007365D01*
X003625Y007038D01*
X003368Y007038D01*
X003363Y007033D01*
X003357Y007038D01*
X003053Y007038D01*
X003048Y007033D01*
X003042Y007038D01*
X002738Y007038D01*
X002733Y007033D01*
X002727Y007038D01*
X002423Y007038D01*
X002347Y006962D01*
X002347Y006264D01*
X002423Y006187D01*
X002727Y006187D01*
X002733Y006193D01*
X002738Y006187D01*
X003042Y006187D01*
X003048Y006193D01*
X003053Y006187D01*
X003357Y006187D01*
X003363Y006193D01*
X003368Y006187D01*
X003672Y006187D01*
X003678Y006193D01*
X003683Y006187D01*
X003977Y006187D01*
X003994Y006178D01*
X004032Y006167D01*
X004150Y006167D01*
X004268Y006167D01*
X004275Y006169D01*
X004275Y006169D01*
X004275Y006002D01*
X004386Y005891D01*
X004471Y005806D01*
X006529Y005806D01*
X006598Y005876D01*
X006604Y005876D01*
X006653Y005931D01*
X006705Y005983D01*
X006705Y005989D01*
X006778Y006069D01*
X007086Y006069D01*
X007139Y006123D01*
X007148Y006107D01*
X007176Y006079D01*
X007210Y006060D01*
X007248Y006049D01*
X007436Y006049D01*
X007436Y006348D01*
X007533Y006348D01*
X007533Y006445D01*
X007436Y006445D01*
X007436Y006743D01*
X007248Y006743D01*
X007210Y006733D01*
X007176Y006713D01*
X007148Y006685D01*
X007139Y006670D01*
X007086Y006723D01*
X006545Y006723D01*
X006469Y006647D01*
X006469Y006294D01*
X006377Y006192D01*
X006371Y006186D01*
X004655Y006186D01*
X004655Y006187D01*
X004932Y006187D01*
X004937Y006193D01*
X004943Y006187D01*
X005247Y006187D01*
X005252Y006193D01*
X005258Y006187D01*
X005562Y006187D01*
X005567Y006193D01*
X005573Y006187D01*
X005877Y006187D01*
X005953Y006264D01*
X005953Y006962D01*
X005877Y007038D01*
X005573Y007038D01*
X005567Y007033D01*
X005562Y007038D01*
X005258Y007038D01*
X005252Y007033D01*
X005247Y007038D01*
X004943Y007038D01*
X004937Y007033D01*
X004932Y007038D01*
X004628Y007038D01*
X004622Y007033D01*
X004617Y007038D01*
X004323Y007038D01*
X004306Y007048D01*
X004268Y007058D01*
X004150Y007058D01*
X004045Y007058D01*
X004045Y007488D01*
X004552Y007995D01*
X004675Y008118D01*
X004675Y008371D01*
X006008Y008371D01*
X006008Y008114D01*
X006013Y008109D01*
X006008Y008104D01*
X006008Y007799D01*
X006013Y007794D01*
X006008Y007789D01*
X006008Y007484D01*
X006013Y007479D01*
X006008Y007474D01*
X006008Y007169D01*
X006084Y007093D01*
X006783Y007093D01*
X006859Y007169D01*
X006859Y007474D01*
X006854Y007479D01*
X006859Y007484D01*
X006859Y007761D01*
X007016Y007761D01*
X008571Y006206D01*
X011824Y006206D01*
X011807Y006189D01*
X011765Y006132D01*
X011733Y006069D01*
X011711Y006002D01*
X011702Y005946D01*
X012100Y005946D01*
X012100Y005846D01*
X012200Y005846D01*
X012200Y005448D01*
X012255Y005457D01*
X012323Y005479D01*
X012386Y005511D01*
X012443Y005553D01*
X012493Y005603D01*
X012535Y005660D01*
X012567Y005723D01*
X012589Y005791D01*
X012598Y005846D01*
X012200Y005846D01*
X012200Y005946D01*
X012598Y005946D01*
X012589Y006002D01*
X012567Y006069D01*
X012535Y006132D01*
X012493Y006189D01*
X012476Y006206D01*
X013071Y006206D01*
X013242Y006035D01*
X013220Y005982D01*
X013220Y005811D01*
X013285Y005653D01*
X013406Y005532D01*
X013564Y005466D01*
X013736Y005466D01*
X013894Y005532D01*
X014015Y005653D01*
X014080Y005811D01*
X014080Y005982D01*
X014015Y006140D01*
X013894Y006261D01*
X013736Y006326D01*
X013564Y006326D01*
X013511Y006304D01*
X013340Y006475D01*
X013229Y006586D01*
X012448Y006586D01*
X012515Y006653D01*
X012580Y006811D01*
X012580Y006982D01*
X012515Y007140D01*
X012448Y007206D01*
X013071Y007206D01*
X013242Y007035D01*
X013220Y006982D01*
X013220Y006811D01*
X013285Y006653D01*
X013406Y006532D01*
X013564Y006466D01*
X013736Y006466D01*
X013894Y006532D01*
X014015Y006653D01*
X014080Y006811D01*
X014080Y006982D01*
X014015Y007140D01*
X013894Y007261D01*
X013736Y007326D01*
X013564Y007326D01*
X013511Y007304D01*
X013349Y007466D01*
X014004Y007466D01*
X014080Y007542D01*
X014080Y008029D01*
X014737Y008686D01*
X015237Y008686D01*
X015707Y009156D01*
X015944Y009156D01*
X016020Y009232D01*
X016020Y010059D01*
X016039Y010041D01*
X016190Y010041D01*
X016190Y009232D01*
X016266Y009156D01*
X016270Y009156D01*
X016270Y008715D01*
X015916Y008361D01*
X015872Y008255D01*
X015872Y007963D01*
X015872Y007963D01*
X015796Y007887D01*
X015796Y007307D01*
X015872Y007231D01*
X016452Y007231D01*
X016528Y007307D01*
X016528Y007887D01*
X016452Y007963D01*
X016452Y007963D01*
X016452Y008077D01*
X016806Y008431D01*
X016850Y008537D01*
X016850Y009156D01*
X016854Y009156D01*
X016884Y009186D01*
X017469Y009186D01*
X017469Y009145D01*
X017545Y009069D01*
X018086Y009069D01*
X018139Y009123D01*
X018148Y009107D01*
X018176Y009079D01*
X018210Y009060D01*
X018248Y009049D01*
X018436Y009049D01*
X018436Y009348D01*
X018533Y009348D01*
X018533Y009445D01*
X018436Y009445D01*
X018436Y009743D01*
X018248Y009743D01*
X018210Y009733D01*
X018176Y009713D01*
X018148Y009685D01*
X018139Y009670D01*
X018086Y009723D01*
X017545Y009723D01*
X017469Y009647D01*
X017469Y009606D01*
X016930Y009606D01*
X016930Y010220D01*
X016854Y010296D01*
X016543Y010296D01*
X016537Y010309D01*
X016537Y010776D01*
X016461Y010852D01*
X016062Y010852D01*
X016115Y010904D01*
X016180Y011062D01*
X016180Y011603D01*
X016413Y011603D01*
X016489Y011679D01*
X016489Y012102D01*
X016491Y012109D01*
X016491Y013151D01*
X016531Y013151D01*
X016607Y013227D01*
X016607Y013965D01*
X016531Y014041D01*
X015872Y014041D01*
X015796Y013965D01*
X015796Y013227D01*
X015872Y013151D01*
X015911Y013151D01*
X015911Y012729D01*
X014887Y012729D01*
X014811Y012653D01*
X014811Y012606D01*
X014737Y012606D01*
X013580Y013763D01*
X013580Y014074D01*
X013488Y014166D01*
X021150Y014166D01*
X021150Y004626D01*
X014010Y004626D01*
X014035Y004660D01*
X014067Y004723D01*
X014089Y004791D01*
X014098Y004846D01*
X013700Y004846D01*
X013700Y004946D01*
X014098Y004946D01*
X014089Y005002D01*
X014067Y005069D01*
X014035Y005132D01*
X013993Y005189D01*
X013943Y005239D01*
X013886Y005281D01*
X013823Y005313D01*
X013755Y005335D01*
X013700Y005344D01*
X013700Y004946D01*
X013600Y004946D01*
X013600Y004846D01*
X013202Y004846D01*
X013211Y004791D01*
X013233Y004723D01*
X013265Y004660D01*
X013290Y004626D01*
X012510Y004626D01*
X012535Y004660D01*
X012567Y004723D01*
X012589Y004791D01*
X012598Y004846D01*
X012200Y004846D01*
X012200Y004946D01*
X012598Y004946D01*
X012589Y005002D01*
X012567Y005069D01*
X012535Y005132D01*
X012493Y005189D01*
X012443Y005239D01*
X012386Y005281D01*
X012323Y005313D01*
X012255Y005335D01*
X012200Y005344D01*
X012200Y004946D01*
X012100Y004946D01*
X012100Y004846D01*
X011702Y004846D01*
X011711Y004791D01*
X011733Y004723D01*
X011765Y004660D01*
X011790Y004626D01*
X010707Y004626D01*
X010750Y004731D01*
X010750Y005400D01*
X010691Y005542D01*
X010582Y005651D01*
X010440Y005710D01*
X010286Y005710D01*
X010143Y005651D01*
X010034Y005542D01*
X009975Y005400D01*
X009975Y004731D01*
X010019Y004626D01*
X009919Y004626D01*
X009963Y004731D01*
X009963Y005400D01*
X009904Y005542D01*
X009795Y005651D01*
X009652Y005710D01*
X009498Y005710D01*
X009356Y005651D01*
X009247Y005542D01*
X009188Y005400D01*
X009188Y004731D01*
X009231Y004626D01*
X009132Y004626D01*
X009175Y004731D01*
X009175Y005400D01*
X009116Y005542D01*
X009007Y005651D01*
X008865Y005710D01*
X008711Y005710D01*
X008568Y005651D01*
X008459Y005542D01*
X008400Y005400D01*
X008400Y004731D01*
X008444Y004626D01*
X008344Y004626D01*
X008388Y004731D01*
X008388Y005400D01*
X008329Y005542D01*
X008220Y005651D01*
X008077Y005710D01*
X007923Y005710D01*
X007781Y005651D01*
X007672Y005542D01*
X007613Y005400D01*
X007613Y004731D01*
X007656Y004626D01*
X007557Y004626D01*
X007600Y004731D01*
X007600Y005400D01*
X007541Y005542D01*
X007432Y005651D01*
X007290Y005710D01*
X007136Y005710D01*
X006994Y005651D01*
X006885Y005542D01*
X006826Y005400D01*
X006826Y004731D01*
X006869Y004626D01*
X006770Y004626D01*
X006813Y004731D01*
X006813Y005400D01*
X006754Y005542D01*
X006645Y005651D01*
X006503Y005710D01*
X006349Y005710D01*
X006206Y005651D01*
X006097Y005542D01*
X006038Y005400D01*
X006038Y004731D01*
X006081Y004626D01*
X005982Y004626D01*
X006026Y004731D01*
X006026Y005400D01*
X005967Y005542D01*
X005858Y005651D01*
X005715Y005710D01*
X005561Y005710D01*
X005419Y005651D01*
X005310Y005542D01*
X005251Y005400D01*
X005251Y004731D01*
X005294Y004626D01*
X005195Y004626D01*
X005238Y004731D01*
X005238Y005400D01*
X005179Y005542D01*
X005070Y005651D01*
X004928Y005710D01*
X004774Y005710D01*
X004631Y005651D01*
X004522Y005542D01*
X004463Y005400D01*
X004463Y004731D01*
X004507Y004626D01*
X004407Y004626D01*
X004451Y004731D01*
X004451Y005400D01*
X004392Y005542D01*
X004283Y005651D01*
X004140Y005710D01*
X003986Y005710D01*
X003844Y005651D01*
X003735Y005542D01*
X003676Y005400D01*
X003676Y004731D01*
X003719Y004626D01*
X003620Y004626D01*
X003663Y004731D01*
X003663Y005400D01*
X003604Y005542D01*
X003495Y005651D01*
X003353Y005710D01*
X003199Y005710D01*
X003056Y005651D01*
X002947Y005542D01*
X002889Y005400D01*
X002889Y004731D01*
X002932Y004626D01*
X001538Y004626D01*
X001662Y004692D02*
X002905Y004692D01*
X002889Y004790D02*
X001760Y004790D01*
X001859Y004889D02*
X002889Y004889D01*
X002889Y004987D02*
X001911Y004987D01*
X001952Y005086D02*
X002889Y005086D01*
X002889Y005184D02*
X001993Y005184D01*
X002010Y005283D02*
X002889Y005283D01*
X002889Y005381D02*
X002010Y005381D01*
X002010Y005480D02*
X002921Y005480D01*
X002983Y005578D02*
X002005Y005578D01*
X001965Y005677D02*
X003117Y005677D01*
X003435Y005677D02*
X003905Y005677D01*
X003771Y005578D02*
X003569Y005578D01*
X003630Y005480D02*
X003709Y005480D01*
X003676Y005381D02*
X003663Y005381D01*
X003663Y005283D02*
X003676Y005283D01*
X003663Y005184D02*
X003676Y005184D01*
X003663Y005086D02*
X003676Y005086D01*
X003663Y004987D02*
X003676Y004987D01*
X003663Y004889D02*
X003676Y004889D01*
X003663Y004790D02*
X003676Y004790D01*
X003692Y004692D02*
X003647Y004692D01*
X004435Y004692D02*
X004480Y004692D01*
X004463Y004790D02*
X004451Y004790D01*
X004451Y004889D02*
X004463Y004889D01*
X004451Y004987D02*
X004463Y004987D01*
X004451Y005086D02*
X004463Y005086D01*
X004451Y005184D02*
X004463Y005184D01*
X004451Y005283D02*
X004463Y005283D01*
X004451Y005381D02*
X004463Y005381D01*
X004496Y005480D02*
X004418Y005480D01*
X004356Y005578D02*
X004558Y005578D01*
X004692Y005677D02*
X004222Y005677D01*
X004404Y005874D02*
X001883Y005874D01*
X001924Y005775D02*
X011716Y005775D01*
X011711Y005791D02*
X011733Y005723D01*
X011765Y005660D01*
X011807Y005603D01*
X011857Y005553D01*
X011914Y005511D01*
X011977Y005479D01*
X012045Y005457D01*
X012100Y005448D01*
X012100Y005846D01*
X011702Y005846D01*
X011711Y005791D01*
X011757Y005677D02*
X010521Y005677D01*
X010655Y005578D02*
X011832Y005578D01*
X011976Y005480D02*
X010717Y005480D01*
X010750Y005381D02*
X014772Y005381D01*
X014772Y005283D02*
X013883Y005283D01*
X013997Y005184D02*
X014772Y005184D01*
X014772Y005086D02*
X014058Y005086D01*
X014091Y004987D02*
X014772Y004987D01*
X014772Y004905D02*
X014848Y004829D01*
X015428Y004829D01*
X015504Y004905D01*
X015504Y005485D01*
X015428Y005562D01*
X015428Y005764D01*
X015770Y006106D01*
X016208Y006106D01*
X016314Y006150D01*
X017314Y007150D01*
X017396Y007232D01*
X017440Y007338D01*
X017440Y007676D01*
X017762Y007998D01*
X017814Y007976D01*
X018586Y007976D01*
X018744Y008042D01*
X018865Y008163D01*
X018892Y008229D01*
X018892Y007992D01*
X018968Y007916D01*
X019674Y007916D01*
X019750Y007992D01*
X019750Y008186D01*
X020063Y008186D01*
X020235Y008014D01*
X020235Y005384D01*
X020234Y005384D01*
X020158Y005307D01*
X020158Y004885D01*
X020234Y004809D01*
X020657Y004809D01*
X020733Y004885D01*
X020733Y005307D01*
X020657Y005384D01*
X020655Y005384D01*
X020655Y008188D01*
X020360Y008483D01*
X020237Y008606D01*
X019828Y008606D01*
X019860Y008638D01*
X019860Y009170D01*
X019911Y009222D01*
X019958Y009335D01*
X019958Y009457D01*
X019911Y009571D01*
X019825Y009657D01*
X019711Y009704D01*
X019589Y009704D01*
X019475Y009657D01*
X019389Y009571D01*
X019342Y009457D01*
X019342Y009335D01*
X019389Y009222D01*
X019440Y009170D01*
X019440Y008877D01*
X018968Y008877D01*
X018892Y008800D01*
X018892Y008583D01*
X018865Y008650D01*
X018744Y008771D01*
X018586Y008836D01*
X017814Y008836D01*
X017656Y008771D01*
X017535Y008650D01*
X017494Y008551D01*
X016904Y007960D01*
X016860Y007854D01*
X016860Y007516D01*
X016030Y006686D01*
X015592Y006686D01*
X015486Y006642D01*
X015404Y006560D01*
X014892Y006049D01*
X014848Y005942D01*
X014848Y005562D01*
X014772Y005485D01*
X014772Y004905D01*
X014789Y004889D02*
X013700Y004889D01*
X013700Y004987D02*
X013600Y004987D01*
X013600Y004946D02*
X013600Y005344D01*
X013545Y005335D01*
X013477Y005313D01*
X013414Y005281D01*
X013357Y005239D01*
X013307Y005189D01*
X013265Y005132D01*
X013233Y005069D01*
X013211Y005002D01*
X013202Y004946D01*
X013600Y004946D01*
X013600Y004889D02*
X012200Y004889D01*
X012200Y004987D02*
X012100Y004987D01*
X012100Y004946D02*
X012100Y005344D01*
X012045Y005335D01*
X011977Y005313D01*
X011914Y005281D01*
X011857Y005239D01*
X011807Y005189D01*
X011765Y005132D01*
X011733Y005069D01*
X011711Y005002D01*
X011702Y004946D01*
X012100Y004946D01*
X012100Y004889D02*
X010750Y004889D01*
X010750Y004987D02*
X011709Y004987D01*
X011742Y005086D02*
X010750Y005086D01*
X010750Y005184D02*
X011803Y005184D01*
X011917Y005283D02*
X010750Y005283D01*
X010070Y005578D02*
X009868Y005578D01*
X009930Y005480D02*
X010008Y005480D01*
X009975Y005381D02*
X009963Y005381D01*
X009963Y005283D02*
X009975Y005283D01*
X009963Y005184D02*
X009975Y005184D01*
X009963Y005086D02*
X009975Y005086D01*
X009963Y004987D02*
X009975Y004987D01*
X009963Y004889D02*
X009975Y004889D01*
X009963Y004790D02*
X009975Y004790D01*
X009991Y004692D02*
X009946Y004692D01*
X009204Y004692D02*
X009159Y004692D01*
X009175Y004790D02*
X009188Y004790D01*
X009175Y004889D02*
X009188Y004889D01*
X009175Y004987D02*
X009188Y004987D01*
X009175Y005086D02*
X009188Y005086D01*
X009175Y005184D02*
X009188Y005184D01*
X009175Y005283D02*
X009188Y005283D01*
X009175Y005381D02*
X009188Y005381D01*
X009221Y005480D02*
X009142Y005480D01*
X009081Y005578D02*
X009282Y005578D01*
X009417Y005677D02*
X008946Y005677D01*
X008629Y005677D02*
X008159Y005677D01*
X008293Y005578D02*
X008495Y005578D01*
X008433Y005480D02*
X008355Y005480D01*
X008388Y005381D02*
X008400Y005381D01*
X008388Y005283D02*
X008400Y005283D01*
X008388Y005184D02*
X008400Y005184D01*
X008388Y005086D02*
X008400Y005086D01*
X008388Y004987D02*
X008400Y004987D01*
X008388Y004889D02*
X008400Y004889D01*
X008388Y004790D02*
X008400Y004790D01*
X008417Y004692D02*
X008372Y004692D01*
X007629Y004692D02*
X007584Y004692D01*
X007600Y004790D02*
X007613Y004790D01*
X007600Y004889D02*
X007613Y004889D01*
X007600Y004987D02*
X007613Y004987D01*
X007600Y005086D02*
X007613Y005086D01*
X007600Y005184D02*
X007613Y005184D01*
X007600Y005283D02*
X007613Y005283D01*
X007600Y005381D02*
X007613Y005381D01*
X007646Y005480D02*
X007567Y005480D01*
X007506Y005578D02*
X007708Y005578D01*
X007842Y005677D02*
X007372Y005677D01*
X007054Y005677D02*
X006584Y005677D01*
X006718Y005578D02*
X006920Y005578D01*
X006859Y005480D02*
X006780Y005480D01*
X006813Y005381D02*
X006826Y005381D01*
X006813Y005283D02*
X006826Y005283D01*
X006813Y005184D02*
X006826Y005184D01*
X006813Y005086D02*
X006826Y005086D01*
X006813Y004987D02*
X006826Y004987D01*
X006813Y004889D02*
X006826Y004889D01*
X006813Y004790D02*
X006826Y004790D01*
X006842Y004692D02*
X006797Y004692D01*
X006054Y004692D02*
X006009Y004692D01*
X006026Y004790D02*
X006038Y004790D01*
X006026Y004889D02*
X006038Y004889D01*
X006026Y004987D02*
X006038Y004987D01*
X006026Y005086D02*
X006038Y005086D01*
X006026Y005184D02*
X006038Y005184D01*
X006026Y005283D02*
X006038Y005283D01*
X006026Y005381D02*
X006038Y005381D01*
X006071Y005480D02*
X005993Y005480D01*
X005931Y005578D02*
X006133Y005578D01*
X006267Y005677D02*
X005797Y005677D01*
X005480Y005677D02*
X005009Y005677D01*
X005144Y005578D02*
X005345Y005578D01*
X005284Y005480D02*
X005205Y005480D01*
X005238Y005381D02*
X005251Y005381D01*
X005238Y005283D02*
X005251Y005283D01*
X005238Y005184D02*
X005251Y005184D01*
X005238Y005086D02*
X005251Y005086D01*
X005238Y004987D02*
X005251Y004987D01*
X005238Y004889D02*
X005251Y004889D01*
X005238Y004790D02*
X005251Y004790D01*
X005267Y004692D02*
X005222Y004692D01*
X006596Y005874D02*
X012100Y005874D01*
X012100Y005775D02*
X012200Y005775D01*
X012200Y005677D02*
X012100Y005677D01*
X012100Y005578D02*
X012200Y005578D01*
X012200Y005480D02*
X012100Y005480D01*
X012324Y005480D02*
X013532Y005480D01*
X013360Y005578D02*
X012468Y005578D01*
X012543Y005677D02*
X013275Y005677D01*
X013235Y005775D02*
X012584Y005775D01*
X012594Y005972D02*
X013220Y005972D01*
X013220Y005874D02*
X012200Y005874D01*
X012566Y006071D02*
X013207Y006071D01*
X013108Y006169D02*
X012508Y006169D01*
X011792Y006169D02*
X007848Y006169D01*
X007851Y006180D02*
X007851Y006348D01*
X007533Y006348D01*
X007533Y006049D01*
X007721Y006049D01*
X007759Y006060D01*
X007793Y006079D01*
X007821Y006107D01*
X007841Y006141D01*
X007851Y006180D01*
X007851Y006268D02*
X008510Y006268D01*
X008411Y006366D02*
X007533Y006366D01*
X007533Y006445D02*
X007851Y006445D01*
X007851Y006613D01*
X007841Y006651D01*
X007821Y006685D01*
X007793Y006713D01*
X007759Y006733D01*
X007721Y006743D01*
X007533Y006743D01*
X007533Y006445D01*
X007533Y006465D02*
X007436Y006465D01*
X007436Y006563D02*
X007533Y006563D01*
X007533Y006662D02*
X007436Y006662D01*
X007835Y006662D02*
X008116Y006662D01*
X008017Y006760D02*
X005953Y006760D01*
X005953Y006662D02*
X006484Y006662D01*
X006469Y006563D02*
X005953Y006563D01*
X005953Y006465D02*
X006469Y006465D01*
X006469Y006366D02*
X005953Y006366D01*
X005953Y006268D02*
X006445Y006268D01*
X006695Y005972D02*
X011706Y005972D01*
X011734Y006071D02*
X007778Y006071D01*
X007533Y006071D02*
X007436Y006071D01*
X007436Y006169D02*
X007533Y006169D01*
X007533Y006268D02*
X007436Y006268D01*
X007851Y006465D02*
X008313Y006465D01*
X008214Y006563D02*
X007851Y006563D01*
X007919Y006859D02*
X005953Y006859D01*
X005953Y006957D02*
X007820Y006957D01*
X007722Y007056D02*
X004277Y007056D01*
X004150Y007056D02*
X004150Y007056D01*
X004150Y007058D02*
X004150Y006613D01*
X004150Y007058D01*
X004150Y006957D02*
X004150Y006957D01*
X004150Y006859D02*
X004150Y006859D01*
X004150Y006760D02*
X004150Y006760D01*
X004150Y006662D02*
X004150Y006662D01*
X004150Y006613D02*
X004150Y006613D01*
X004150Y006167D01*
X004150Y006613D01*
X004150Y006613D01*
X004150Y006563D02*
X004150Y006563D01*
X004150Y006465D02*
X004150Y006465D01*
X004150Y006366D02*
X004150Y006366D01*
X004150Y006268D02*
X004150Y006268D01*
X004150Y006169D02*
X004150Y006169D01*
X004025Y006169D02*
X001531Y006169D01*
X001692Y006071D02*
X004275Y006071D01*
X004305Y005972D02*
X001790Y005972D01*
X002347Y006268D02*
X000380Y006268D01*
X000380Y006366D02*
X002347Y006366D01*
X002347Y006465D02*
X000380Y006465D01*
X000380Y006563D02*
X002347Y006563D01*
X002347Y006662D02*
X000380Y006662D01*
X000380Y006760D02*
X000567Y006760D01*
X000543Y006859D02*
X000380Y006859D01*
X000380Y006957D02*
X000543Y006957D01*
X000543Y007056D02*
X000380Y007056D01*
X000380Y007154D02*
X000543Y007154D01*
X000575Y007253D02*
X000380Y007253D01*
X000380Y007351D02*
X000591Y007351D01*
X000563Y007450D02*
X000380Y007450D01*
X000380Y007548D02*
X000563Y007548D01*
X000563Y007647D02*
X000380Y007647D01*
X000380Y007745D02*
X000563Y007745D01*
X000603Y007844D02*
X000380Y007844D01*
X000380Y007942D02*
X000572Y007942D01*
X000523Y008041D02*
X000380Y008041D01*
X000380Y008139D02*
X000523Y008139D01*
X000523Y008238D02*
X000380Y008238D01*
X000380Y008336D02*
X000523Y008336D01*
X000523Y008435D02*
X000380Y008435D01*
X000380Y008533D02*
X000524Y008533D01*
X000552Y008632D02*
X000380Y008632D01*
X000380Y008730D02*
X000523Y008730D01*
X000523Y008829D02*
X000380Y008829D01*
X000380Y008927D02*
X000523Y008927D01*
X000523Y009026D02*
X000380Y009026D01*
X000380Y009124D02*
X000523Y009124D01*
X000545Y009223D02*
X000380Y009223D01*
X000380Y009321D02*
X000589Y009321D01*
X000548Y009420D02*
X000380Y009420D01*
X000380Y009518D02*
X000542Y009518D01*
X000566Y009617D02*
X000380Y009617D01*
X000380Y009715D02*
X000633Y009715D01*
X000380Y009814D02*
X001441Y009814D01*
X001441Y009912D02*
X001270Y009912D01*
X001030Y009912D02*
X000380Y009912D01*
X000380Y010011D02*
X000900Y010011D01*
X000853Y010109D02*
X000380Y010109D01*
X000380Y010208D02*
X000842Y010208D01*
X000862Y010306D02*
X000380Y010306D01*
X000380Y010405D02*
X000923Y010405D01*
X001086Y010503D02*
X000380Y010503D01*
X000380Y010602D02*
X001441Y010602D01*
X001441Y010503D02*
X001214Y010503D01*
X001377Y010405D02*
X001441Y010405D01*
X001510Y010700D02*
X000380Y010700D01*
X000380Y010799D02*
X001457Y010799D01*
X001442Y010897D02*
X000380Y010897D01*
X000380Y010996D02*
X001458Y010996D01*
X001512Y011094D02*
X001283Y011094D01*
X001200Y011063D02*
X001490Y011173D01*
X001491Y011173D01*
X001697Y011406D01*
X001771Y011708D01*
X001697Y012010D01*
X001491Y012243D01*
X001490Y012243D01*
X001200Y012353D01*
X001200Y012353D01*
X000891Y012316D01*
X000891Y012316D01*
X000635Y012139D01*
X000635Y012139D01*
X000490Y011864D01*
X000490Y011552D01*
X000635Y011277D01*
X000891Y011100D01*
X001200Y011063D01*
X001200Y011063D01*
X000940Y011094D02*
X000380Y011094D01*
X000380Y011193D02*
X000757Y011193D01*
X000635Y011277D02*
X000635Y011277D01*
X000635Y011277D01*
X000627Y011291D02*
X000380Y011291D01*
X000380Y011390D02*
X000576Y011390D01*
X000524Y011488D02*
X000380Y011488D01*
X000380Y011587D02*
X000490Y011587D01*
X000490Y011685D02*
X000380Y011685D01*
X000380Y011784D02*
X000490Y011784D01*
X000500Y011882D02*
X000380Y011882D01*
X000380Y011981D02*
X000552Y011981D01*
X000603Y012079D02*
X000380Y012079D01*
X000380Y012178D02*
X000691Y012178D01*
X000635Y012139D02*
X000635Y012139D01*
X000833Y012276D02*
X000380Y012276D01*
X000380Y012375D02*
X002385Y012375D01*
X002385Y012473D02*
X000380Y012473D01*
X000380Y012572D02*
X000893Y012572D01*
X000660Y012670D02*
X000380Y012670D01*
X000380Y012769D02*
X000561Y012769D01*
X000463Y012867D02*
X000380Y012867D01*
X000380Y012966D02*
X000398Y012966D01*
X001407Y012572D02*
X002385Y012572D01*
X002385Y012670D02*
X001640Y012670D01*
X001739Y012769D02*
X002454Y012769D01*
X002552Y012867D02*
X001837Y012867D01*
X001902Y012966D02*
X002651Y012966D01*
X002749Y013064D02*
X001943Y013064D01*
X001984Y013163D02*
X003035Y013163D01*
X002943Y013261D02*
X002010Y013261D01*
X002010Y013360D02*
X002902Y013360D01*
X002889Y013458D02*
X002010Y013458D01*
X002010Y013557D02*
X002889Y013557D01*
X002889Y013655D02*
X001973Y013655D01*
X001933Y013754D02*
X002889Y013754D01*
X002889Y013852D02*
X001892Y013852D01*
X001812Y013951D02*
X002889Y013951D01*
X002889Y014049D02*
X001713Y014049D01*
X001583Y014148D02*
X002924Y014148D01*
X003620Y014166D02*
X003663Y014061D01*
X003663Y013392D01*
X003604Y013250D01*
X003495Y013141D01*
X003363Y013086D01*
X003571Y013086D01*
X003735Y013250D01*
X003735Y013250D01*
X003676Y013392D01*
X003676Y014061D01*
X003719Y014166D01*
X003620Y014166D01*
X003628Y014148D02*
X003712Y014148D01*
X003676Y014049D02*
X003663Y014049D01*
X003663Y013951D02*
X003676Y013951D01*
X003663Y013852D02*
X003676Y013852D01*
X003663Y013754D02*
X003676Y013754D01*
X003663Y013655D02*
X003676Y013655D01*
X003663Y013557D02*
X003676Y013557D01*
X003663Y013458D02*
X003676Y013458D01*
X003689Y013360D02*
X003650Y013360D01*
X003609Y013261D02*
X003730Y013261D01*
X003648Y013163D02*
X003517Y013163D01*
X003729Y012706D02*
X004104Y013082D01*
X004140Y013082D01*
X004283Y013141D01*
X004392Y013250D01*
X004451Y013392D01*
X004451Y014061D01*
X004407Y014166D01*
X004507Y014166D01*
X004463Y014061D01*
X004463Y013392D01*
X004522Y013250D01*
X004631Y013141D01*
X004774Y013082D01*
X004928Y013082D01*
X005070Y013141D01*
X005179Y013250D01*
X005238Y013392D01*
X005238Y014061D01*
X005195Y014166D01*
X005294Y014166D01*
X005251Y014061D01*
X005251Y013392D01*
X005310Y013250D01*
X005419Y013141D01*
X005551Y013086D01*
X005071Y013086D01*
X004960Y012975D01*
X004590Y012605D01*
X004590Y011605D01*
X004323Y011605D01*
X004306Y011615D01*
X004268Y011625D01*
X004150Y011625D01*
X004147Y011625D01*
X004229Y011706D01*
X004254Y011732D01*
X004314Y011732D01*
X004390Y011808D01*
X004390Y012585D01*
X004314Y012661D01*
X003931Y012661D01*
X003900Y012630D01*
X003880Y012651D01*
X003846Y012671D01*
X003808Y012681D01*
X003669Y012681D01*
X003669Y012215D01*
X003631Y012215D01*
X003631Y012681D01*
X003492Y012681D01*
X003454Y012671D01*
X003420Y012651D01*
X003400Y012630D01*
X003369Y012661D01*
X002986Y012661D01*
X002910Y012585D01*
X002910Y011808D01*
X002986Y011732D01*
X003046Y011732D01*
X003071Y011706D01*
X003173Y011605D01*
X003053Y011605D01*
X003048Y011600D01*
X003042Y011605D01*
X002765Y011605D01*
X002765Y012543D01*
X002929Y012706D01*
X003729Y012706D01*
X003669Y012670D02*
X003631Y012670D01*
X003631Y012572D02*
X003669Y012572D01*
X003669Y012473D02*
X003631Y012473D01*
X003631Y012375D02*
X003669Y012375D01*
X003669Y012276D02*
X003631Y012276D01*
X003631Y012177D02*
X003669Y012177D01*
X003669Y011712D01*
X003697Y011712D01*
X003650Y011665D01*
X003603Y011712D01*
X003631Y011712D01*
X003631Y012177D01*
X003631Y012079D02*
X003669Y012079D01*
X003669Y011981D02*
X003631Y011981D01*
X003631Y011882D02*
X003669Y011882D01*
X003669Y011784D02*
X003631Y011784D01*
X003630Y011685D02*
X003670Y011685D01*
X004150Y011625D02*
X004150Y011180D01*
X004150Y011180D01*
X004150Y011625D01*
X004150Y011587D02*
X004150Y011587D01*
X004150Y011488D02*
X004150Y011488D01*
X004150Y011390D02*
X004150Y011390D01*
X004150Y011291D02*
X004150Y011291D01*
X004150Y011193D02*
X004150Y011193D01*
X004150Y011180D02*
X004150Y010734D01*
X004150Y011180D01*
X004150Y011180D01*
X004150Y011094D02*
X004150Y011094D01*
X004150Y010996D02*
X004150Y010996D01*
X004150Y010897D02*
X004150Y010897D01*
X004150Y010799D02*
X004150Y010799D01*
X004255Y010700D02*
X003395Y010700D01*
X003413Y010602D02*
X004255Y010602D01*
X004255Y010503D02*
X003512Y010503D01*
X003610Y010405D02*
X004255Y010405D01*
X004255Y010306D02*
X003709Y010306D01*
X003807Y010208D02*
X004255Y010208D01*
X004255Y010109D02*
X003840Y010109D01*
X003840Y010011D02*
X004255Y010011D01*
X004255Y009912D02*
X003840Y009912D01*
X003840Y009814D02*
X004255Y009814D01*
X004255Y009715D02*
X003840Y009715D01*
X003840Y009617D02*
X004255Y009617D01*
X004255Y009518D02*
X003840Y009518D01*
X003840Y009420D02*
X004255Y009420D01*
X004255Y009321D02*
X003840Y009321D01*
X003840Y009223D02*
X004255Y009223D01*
X004255Y009124D02*
X003840Y009124D01*
X003840Y009026D02*
X004255Y009026D01*
X004255Y008927D02*
X003840Y008927D01*
X003840Y008829D02*
X004255Y008829D01*
X004255Y008730D02*
X003840Y008730D01*
X003754Y008632D02*
X004255Y008632D01*
X004255Y008533D02*
X003656Y008533D01*
X003558Y008435D02*
X004255Y008435D01*
X004255Y008336D02*
X003558Y008336D01*
X003518Y008238D02*
X004201Y008238D01*
X004102Y008139D02*
X003429Y008139D01*
X003071Y008139D02*
X002860Y008139D01*
X002860Y008238D02*
X002982Y008238D01*
X002942Y008336D02*
X002860Y008336D01*
X002860Y008435D02*
X002942Y008435D01*
X002973Y008533D02*
X002860Y008533D01*
X002860Y008632D02*
X003050Y008632D01*
X002860Y008730D02*
X003315Y008730D01*
X003414Y008829D02*
X002814Y008829D01*
X002737Y008906D02*
X002737Y008906D01*
X002716Y008927D02*
X003460Y008927D01*
X003460Y009026D02*
X002617Y009026D01*
X002888Y009223D02*
X002292Y009223D01*
X002292Y009321D02*
X002848Y009321D01*
X002842Y009420D02*
X002292Y009420D01*
X002292Y009518D02*
X002867Y009518D01*
X002935Y009617D02*
X002780Y009617D01*
X002905Y009715D02*
X002960Y009715D01*
X002949Y009814D02*
X002960Y009814D01*
X002958Y009912D02*
X002960Y009912D01*
X002960Y010011D02*
X002936Y010011D01*
X002960Y010109D02*
X002873Y010109D01*
X002870Y010208D02*
X002292Y010208D01*
X002292Y010306D02*
X002771Y010306D01*
X002700Y010405D02*
X002292Y010405D01*
X002292Y010503D02*
X002700Y010503D01*
X002700Y010602D02*
X002292Y010602D01*
X001990Y010700D02*
X002700Y010700D01*
X002379Y010799D02*
X002043Y010799D01*
X002058Y010897D02*
X002347Y010897D01*
X002347Y010996D02*
X002042Y010996D01*
X001988Y011094D02*
X002347Y011094D01*
X002347Y011193D02*
X001839Y011193D01*
X001661Y011193D02*
X001508Y011193D01*
X001595Y011291D02*
X002347Y011291D01*
X002347Y011390D02*
X001682Y011390D01*
X001697Y011406D02*
X001697Y011406D01*
X001717Y011488D02*
X002347Y011488D01*
X002385Y011587D02*
X001741Y011587D01*
X001766Y011685D02*
X002385Y011685D01*
X002385Y011784D02*
X001753Y011784D01*
X001728Y011882D02*
X002385Y011882D01*
X002385Y011981D02*
X001704Y011981D01*
X001697Y012010D02*
X001697Y012010D01*
X001636Y012079D02*
X002385Y012079D01*
X002385Y012178D02*
X001548Y012178D01*
X001403Y012276D02*
X002385Y012276D01*
X002765Y012276D02*
X002910Y012276D01*
X002910Y012178D02*
X002765Y012178D01*
X002765Y012079D02*
X002910Y012079D01*
X002910Y011981D02*
X002765Y011981D01*
X002765Y011882D02*
X002910Y011882D01*
X002934Y011784D02*
X002765Y011784D01*
X002765Y011685D02*
X003092Y011685D01*
X004208Y011685D02*
X004590Y011685D01*
X004590Y011784D02*
X004366Y011784D01*
X004390Y011882D02*
X004590Y011882D01*
X004590Y011981D02*
X004390Y011981D01*
X004390Y012079D02*
X004590Y012079D01*
X004590Y012178D02*
X004390Y012178D01*
X004390Y012276D02*
X004590Y012276D01*
X004590Y012375D02*
X004390Y012375D01*
X004390Y012473D02*
X004590Y012473D01*
X004590Y012572D02*
X004390Y012572D01*
X004655Y012670D02*
X003846Y012670D01*
X003791Y012769D02*
X004754Y012769D01*
X004852Y012867D02*
X003890Y012867D01*
X003988Y012966D02*
X004951Y012966D01*
X005049Y013064D02*
X004087Y013064D01*
X004305Y013163D02*
X004610Y013163D01*
X004518Y013261D02*
X004397Y013261D01*
X004437Y013360D02*
X004477Y013360D01*
X004463Y013458D02*
X004451Y013458D01*
X004451Y013557D02*
X004463Y013557D01*
X004451Y013655D02*
X004463Y013655D01*
X004451Y013754D02*
X004463Y013754D01*
X004451Y013852D02*
X004463Y013852D01*
X004451Y013951D02*
X004463Y013951D01*
X004451Y014049D02*
X004463Y014049D01*
X004499Y014148D02*
X004415Y014148D01*
X005203Y014148D02*
X005286Y014148D01*
X005251Y014049D02*
X005238Y014049D01*
X005238Y013951D02*
X005251Y013951D01*
X005238Y013852D02*
X005251Y013852D01*
X005238Y013754D02*
X005251Y013754D01*
X005238Y013655D02*
X005251Y013655D01*
X005238Y013557D02*
X005251Y013557D01*
X005238Y013458D02*
X005251Y013458D01*
X005264Y013360D02*
X005225Y013360D01*
X005184Y013261D02*
X005305Y013261D01*
X005397Y013163D02*
X005092Y013163D01*
X005726Y013086D02*
X005858Y013141D01*
X005967Y013250D01*
X006026Y013392D01*
X006026Y014061D01*
X005982Y014166D01*
X006081Y014166D01*
X006038Y014061D01*
X006038Y013392D01*
X006097Y013250D01*
X006166Y013181D01*
X006160Y013175D01*
X006160Y013086D01*
X005726Y013086D01*
X005879Y013163D02*
X006160Y013163D01*
X006092Y013261D02*
X005971Y013261D01*
X006012Y013360D02*
X006052Y013360D01*
X006038Y013458D02*
X006026Y013458D01*
X006026Y013557D02*
X006038Y013557D01*
X006026Y013655D02*
X006038Y013655D01*
X006026Y013754D02*
X006038Y013754D01*
X006026Y013852D02*
X006038Y013852D01*
X006026Y013951D02*
X006038Y013951D01*
X006026Y014049D02*
X006038Y014049D01*
X006074Y014148D02*
X005990Y014148D01*
X006770Y014166D02*
X006813Y014061D01*
X006813Y013392D01*
X006754Y013250D01*
X006645Y013141D01*
X006616Y013129D01*
X006616Y013093D01*
X006540Y013017D01*
X006540Y012975D01*
X006823Y012692D01*
X006823Y013001D01*
X006899Y013077D01*
X006960Y013077D01*
X006960Y013174D01*
X006885Y013250D01*
X006826Y013392D01*
X006826Y014061D01*
X006869Y014166D01*
X006770Y014166D01*
X006777Y014148D02*
X006861Y014148D01*
X006826Y014049D02*
X006813Y014049D01*
X006813Y013951D02*
X006826Y013951D01*
X006813Y013852D02*
X006826Y013852D01*
X006813Y013754D02*
X006826Y013754D01*
X006813Y013655D02*
X006826Y013655D01*
X006813Y013557D02*
X006826Y013557D01*
X006813Y013458D02*
X006826Y013458D01*
X006839Y013360D02*
X006800Y013360D01*
X006759Y013261D02*
X006880Y013261D01*
X006960Y013163D02*
X006667Y013163D01*
X006587Y013064D02*
X006886Y013064D01*
X006823Y012966D02*
X006549Y012966D01*
X006648Y012867D02*
X006823Y012867D01*
X006823Y012769D02*
X006746Y012769D01*
X006460Y012517D02*
X006460Y011617D01*
X006571Y011506D01*
X006760Y011317D01*
X006871Y011206D01*
X008464Y011206D01*
X008637Y011033D01*
X008637Y010567D01*
X008713Y010491D01*
X008853Y010491D01*
X008853Y008859D01*
X008923Y008789D01*
X008923Y008460D01*
X008987Y008396D01*
X008923Y008332D01*
X008923Y007791D01*
X008999Y007715D01*
X009501Y007715D01*
X009577Y007791D01*
X009577Y007906D01*
X010205Y007906D01*
X010205Y007812D01*
X010281Y007736D01*
X011019Y007736D01*
X011095Y007812D01*
X011095Y008380D01*
X011079Y008396D01*
X011095Y008412D01*
X011095Y008872D01*
X011830Y009608D01*
X011906Y009532D01*
X012064Y009466D01*
X012236Y009466D01*
X012394Y009532D01*
X012515Y009653D01*
X012580Y009811D01*
X012580Y009982D01*
X012515Y010140D01*
X012394Y010261D01*
X012236Y010326D01*
X012064Y010326D01*
X011906Y010261D01*
X011785Y010140D01*
X011758Y010072D01*
X011660Y009975D01*
X010741Y009056D01*
X010281Y009056D01*
X010205Y008980D01*
X010205Y008412D01*
X010221Y008396D01*
X010205Y008380D01*
X010205Y008286D01*
X009577Y008286D01*
X009577Y008332D01*
X009513Y008396D01*
X009577Y008460D01*
X009577Y009001D01*
X009501Y009077D01*
X009233Y009077D01*
X009233Y010491D01*
X009372Y010491D01*
X009449Y010567D01*
X009449Y011226D01*
X009372Y011302D01*
X009233Y011302D01*
X009233Y011706D01*
X011732Y011706D01*
X011972Y011466D01*
X012328Y011466D01*
X012460Y011598D01*
X012460Y010983D01*
X012469Y010974D01*
X012469Y010645D01*
X012545Y010569D01*
X013086Y010569D01*
X013150Y010634D01*
X013214Y010569D01*
X013460Y010569D01*
X013460Y009979D01*
X013439Y009979D01*
X013363Y009903D01*
X013363Y009480D01*
X013439Y009404D01*
X013456Y009404D01*
X013435Y009398D01*
X013400Y009378D01*
X013372Y009350D01*
X013353Y009316D01*
X013343Y009278D01*
X013343Y009130D01*
X013621Y009130D01*
X013621Y009072D01*
X013343Y009072D01*
X013343Y008924D01*
X013353Y008885D01*
X013372Y008851D01*
X013400Y008823D01*
X013435Y008804D01*
X013473Y008793D01*
X013621Y008793D01*
X013621Y009072D01*
X013679Y009072D01*
X013679Y009130D01*
X013957Y009130D01*
X013957Y009278D01*
X013947Y009316D01*
X013928Y009350D01*
X013900Y009378D01*
X013865Y009398D01*
X013844Y009404D01*
X013861Y009404D01*
X013937Y009480D01*
X013937Y009903D01*
X013861Y009979D01*
X013840Y009979D01*
X013840Y010809D01*
X013831Y010818D01*
X013831Y011147D01*
X013755Y011223D01*
X013214Y011223D01*
X013150Y011159D01*
X013086Y011223D01*
X012840Y011223D01*
X012840Y011570D01*
X012964Y011446D01*
X013100Y011446D01*
X013100Y011846D01*
X013200Y011846D01*
X013200Y011446D01*
X013336Y011446D01*
X013600Y011710D01*
X013600Y011846D01*
X013200Y011846D01*
X013200Y011946D01*
X013600Y011946D01*
X013600Y012083D01*
X013336Y012346D01*
X013200Y012346D01*
X013200Y011946D01*
X013100Y011946D01*
X013100Y012346D01*
X012964Y012346D01*
X012840Y012223D01*
X012840Y012475D01*
X012580Y012735D01*
X012580Y013074D01*
X012448Y013206D01*
X012729Y013206D01*
X012840Y013317D01*
X012989Y013466D01*
X013283Y013466D01*
X014440Y012309D01*
X014563Y012186D01*
X014811Y012186D01*
X014811Y011679D01*
X014887Y011603D01*
X015120Y011603D01*
X015120Y011062D01*
X015185Y010904D01*
X015218Y010872D01*
X015079Y010872D01*
X015079Y010475D01*
X015357Y010475D01*
X015357Y010741D01*
X015351Y010765D01*
X015360Y010761D01*
X015360Y010488D01*
X015363Y010482D01*
X015363Y010296D01*
X015357Y010296D01*
X015357Y010417D01*
X015079Y010417D01*
X015079Y010475D01*
X015021Y010475D01*
X015021Y010417D01*
X014743Y010417D01*
X014743Y010151D01*
X014753Y010113D01*
X014772Y010078D01*
X014790Y010061D01*
X014790Y009776D01*
X015130Y009776D01*
X015130Y010021D01*
X015227Y010021D01*
X015265Y010031D01*
X015280Y010039D01*
X015280Y009323D01*
X015063Y009106D01*
X014563Y009106D01*
X014440Y008983D01*
X013783Y008326D01*
X013296Y008326D01*
X013220Y008250D01*
X013220Y007586D01*
X012448Y007586D01*
X012515Y007653D01*
X012580Y007811D01*
X012580Y007982D01*
X012515Y008140D01*
X012394Y008261D01*
X012236Y008326D01*
X012064Y008326D01*
X011906Y008261D01*
X011785Y008140D01*
X011720Y007982D01*
X011720Y007811D01*
X011785Y007653D01*
X011852Y007586D01*
X011571Y007586D01*
X011071Y007086D01*
X008729Y007086D01*
X007470Y008345D01*
X007359Y008456D01*
X006859Y008456D01*
X006859Y008723D01*
X006869Y008740D01*
X006879Y008778D01*
X006879Y008896D01*
X006433Y008896D01*
X005988Y008896D01*
X005988Y008791D01*
X004675Y008791D01*
X004675Y010754D01*
X004932Y010754D01*
X004937Y010760D01*
X004943Y010754D01*
X005247Y010754D01*
X005252Y010760D01*
X005258Y010754D01*
X005562Y010754D01*
X005567Y010760D01*
X005573Y010754D01*
X005877Y010754D01*
X005953Y010830D01*
X005953Y010990D01*
X006388Y010990D01*
X006671Y010706D01*
X007404Y010706D01*
X007475Y010635D01*
X007589Y010588D01*
X007711Y010588D01*
X007825Y010635D01*
X007911Y010722D01*
X007958Y010835D01*
X007958Y010957D01*
X007911Y011071D01*
X007825Y011157D01*
X007711Y011204D01*
X007589Y011204D01*
X007475Y011157D01*
X007404Y011086D01*
X006829Y011086D01*
X006657Y011258D01*
X006545Y011370D01*
X005953Y011370D01*
X005953Y011529D01*
X005877Y011605D01*
X005627Y011605D01*
X005729Y011706D01*
X005904Y011706D01*
X005975Y011635D01*
X006089Y011588D01*
X006211Y011588D01*
X006325Y011635D01*
X006411Y011722D01*
X006458Y011835D01*
X006458Y011957D01*
X006411Y012071D01*
X006325Y012157D01*
X006211Y012204D01*
X006089Y012204D01*
X005975Y012157D01*
X005904Y012086D01*
X005609Y012086D01*
X005611Y012088D01*
X005711Y012088D01*
X005825Y012135D01*
X005911Y012222D01*
X005958Y012335D01*
X005958Y012457D01*
X005911Y012571D01*
X005825Y012657D01*
X005711Y012704D01*
X005589Y012704D01*
X005475Y012657D01*
X005389Y012571D01*
X005342Y012457D01*
X005342Y012357D01*
X004970Y011985D01*
X004970Y012447D01*
X005229Y012706D01*
X006271Y012706D01*
X006460Y012517D01*
X006460Y012473D02*
X005952Y012473D01*
X005958Y012375D02*
X006460Y012375D01*
X006460Y012276D02*
X005934Y012276D01*
X005867Y012178D02*
X006025Y012178D01*
X006275Y012178D02*
X006460Y012178D01*
X006460Y012079D02*
X006403Y012079D01*
X006448Y011981D02*
X006460Y011981D01*
X006458Y011882D02*
X006460Y011882D01*
X006460Y011784D02*
X006437Y011784D01*
X006460Y011685D02*
X006375Y011685D01*
X006491Y011587D02*
X005895Y011587D01*
X005925Y011685D02*
X005708Y011685D01*
X005953Y011488D02*
X006589Y011488D01*
X006688Y011390D02*
X005953Y011390D01*
X006624Y011291D02*
X006786Y011291D01*
X006760Y011317D02*
X006760Y011317D01*
X006722Y011193D02*
X007561Y011193D01*
X007739Y011193D02*
X008478Y011193D01*
X008576Y011094D02*
X007888Y011094D01*
X007942Y010996D02*
X008637Y010996D01*
X008637Y010897D02*
X007958Y010897D01*
X007943Y010799D02*
X008637Y010799D01*
X008637Y010700D02*
X007890Y010700D01*
X007744Y010602D02*
X008637Y010602D01*
X008701Y010503D02*
X006859Y010503D01*
X006859Y010405D02*
X008853Y010405D01*
X008853Y010306D02*
X006859Y010306D01*
X006859Y010308D02*
X006854Y010313D01*
X006859Y010319D01*
X006859Y010623D01*
X006783Y010699D01*
X006084Y010699D01*
X006008Y010623D01*
X006008Y010319D01*
X006013Y010313D01*
X006008Y010308D01*
X006008Y010004D01*
X006013Y009999D01*
X006008Y009993D01*
X006008Y009689D01*
X006013Y009684D01*
X006008Y009678D01*
X006008Y009374D01*
X006013Y009369D01*
X006008Y009363D01*
X006008Y009069D01*
X005998Y009052D01*
X005988Y009014D01*
X005988Y008896D01*
X006433Y008896D01*
X006433Y008896D01*
X006433Y008896D01*
X006879Y008896D01*
X006879Y009014D01*
X006869Y009052D01*
X006859Y009069D01*
X006859Y009363D01*
X006854Y009369D01*
X006859Y009374D01*
X006859Y009678D01*
X006854Y009684D01*
X006859Y009689D01*
X006859Y009993D01*
X006854Y009999D01*
X006859Y010004D01*
X006859Y010308D01*
X006859Y010208D02*
X008853Y010208D01*
X008853Y010109D02*
X006859Y010109D01*
X006859Y010011D02*
X008853Y010011D01*
X008853Y009912D02*
X006859Y009912D01*
X006859Y009814D02*
X008853Y009814D01*
X008853Y009715D02*
X007948Y009715D01*
X007878Y009741D02*
X007570Y009704D01*
X007313Y009527D01*
X007169Y009252D01*
X007169Y008941D01*
X007313Y008665D01*
X007313Y008665D01*
X007313Y008665D01*
X007570Y008488D01*
X007878Y008451D01*
X007878Y008451D01*
X008169Y008561D01*
X008169Y008561D01*
X008376Y008794D01*
X008450Y009096D01*
X008376Y009398D01*
X008169Y009631D01*
X007878Y009741D01*
X007878Y009741D01*
X007662Y009715D02*
X006859Y009715D01*
X006859Y009617D02*
X007443Y009617D01*
X007313Y009527D02*
X007313Y009527D01*
X007309Y009518D02*
X006859Y009518D01*
X006859Y009420D02*
X007257Y009420D01*
X007205Y009321D02*
X006859Y009321D01*
X006859Y009223D02*
X007169Y009223D01*
X007169Y009252D02*
X007169Y009252D01*
X007169Y009124D02*
X006859Y009124D01*
X006876Y009026D02*
X007169Y009026D01*
X007176Y008927D02*
X006879Y008927D01*
X006879Y008829D02*
X007228Y008829D01*
X007279Y008730D02*
X006863Y008730D01*
X006859Y008632D02*
X007362Y008632D01*
X007505Y008533D02*
X006859Y008533D01*
X007380Y008435D02*
X008949Y008435D01*
X008927Y008336D02*
X007479Y008336D01*
X007577Y008238D02*
X008923Y008238D01*
X008923Y008139D02*
X007676Y008139D01*
X007774Y008041D02*
X008923Y008041D01*
X008923Y007942D02*
X007873Y007942D01*
X007971Y007844D02*
X008923Y007844D01*
X008969Y007745D02*
X008070Y007745D01*
X008168Y007647D02*
X011791Y007647D01*
X011747Y007745D02*
X011028Y007745D01*
X011095Y007844D02*
X011720Y007844D01*
X011720Y007942D02*
X011095Y007942D01*
X011095Y008041D02*
X011744Y008041D01*
X011785Y008139D02*
X011095Y008139D01*
X011095Y008238D02*
X011883Y008238D01*
X012064Y008466D02*
X012236Y008466D01*
X012394Y008532D01*
X012515Y008653D01*
X012580Y008811D01*
X012580Y008982D01*
X012515Y009140D01*
X012394Y009261D01*
X012236Y009326D01*
X012064Y009326D01*
X011906Y009261D01*
X011785Y009140D01*
X011720Y008982D01*
X011720Y008811D01*
X011785Y008653D01*
X011906Y008532D01*
X012064Y008466D01*
X011905Y008533D02*
X011095Y008533D01*
X011095Y008435D02*
X013892Y008435D01*
X013990Y008533D02*
X012395Y008533D01*
X012494Y008632D02*
X014089Y008632D01*
X014187Y008730D02*
X012547Y008730D01*
X012580Y008829D02*
X013395Y008829D01*
X013343Y008927D02*
X012580Y008927D01*
X012562Y009026D02*
X013343Y009026D01*
X013343Y009223D02*
X012432Y009223D01*
X012521Y009124D02*
X013621Y009124D01*
X013679Y009124D02*
X015081Y009124D01*
X015072Y009166D02*
X015100Y009194D01*
X015120Y009228D01*
X015130Y009266D01*
X015130Y009676D01*
X014790Y009676D01*
X014790Y009136D01*
X015000Y009136D01*
X015038Y009146D01*
X015072Y009166D01*
X015117Y009223D02*
X015180Y009223D01*
X015130Y009321D02*
X015278Y009321D01*
X015280Y009420D02*
X015130Y009420D01*
X015130Y009518D02*
X015280Y009518D01*
X015280Y009617D02*
X015130Y009617D01*
X015280Y009715D02*
X014790Y009715D01*
X014790Y009676D02*
X014790Y009776D01*
X014690Y009776D01*
X014690Y009676D01*
X014790Y009676D01*
X014790Y009617D02*
X014690Y009617D01*
X014690Y009676D02*
X014690Y009136D01*
X014480Y009136D01*
X014442Y009146D01*
X014408Y009166D01*
X014380Y009194D01*
X014360Y009228D01*
X014350Y009266D01*
X014350Y009676D01*
X014690Y009676D01*
X014690Y009715D02*
X013937Y009715D01*
X013937Y009617D02*
X014350Y009617D01*
X014350Y009518D02*
X013937Y009518D01*
X013877Y009420D02*
X014350Y009420D01*
X014350Y009321D02*
X013944Y009321D01*
X013957Y009223D02*
X014363Y009223D01*
X014483Y009026D02*
X013957Y009026D01*
X013957Y009072D02*
X013679Y009072D01*
X013679Y008793D01*
X013827Y008793D01*
X013865Y008804D01*
X013900Y008823D01*
X013928Y008851D01*
X013947Y008885D01*
X013957Y008924D01*
X013957Y009072D01*
X013957Y008927D02*
X014384Y008927D01*
X014286Y008829D02*
X013905Y008829D01*
X013679Y008829D02*
X013621Y008829D01*
X013621Y008927D02*
X013679Y008927D01*
X013679Y009026D02*
X013621Y009026D01*
X013356Y009321D02*
X012248Y009321D01*
X012052Y009321D02*
X011544Y009321D01*
X011642Y009420D02*
X013423Y009420D01*
X013363Y009518D02*
X012361Y009518D01*
X012479Y009617D02*
X013363Y009617D01*
X013363Y009715D02*
X012540Y009715D01*
X012580Y009814D02*
X013363Y009814D01*
X013372Y009912D02*
X012580Y009912D01*
X012568Y010011D02*
X013460Y010011D01*
X013460Y010109D02*
X012527Y010109D01*
X012447Y010208D02*
X013460Y010208D01*
X013460Y010306D02*
X012284Y010306D01*
X012016Y010306D02*
X010121Y010306D01*
X010153Y010339D02*
X010053Y010238D01*
X009921Y010184D01*
X009779Y010184D01*
X009647Y010238D01*
X009547Y010339D01*
X009492Y010471D01*
X009492Y010613D01*
X009547Y010745D01*
X009647Y010845D01*
X009770Y010896D01*
X009647Y010947D01*
X009547Y011048D01*
X009492Y011179D01*
X009492Y011322D01*
X009547Y011453D01*
X009647Y011554D01*
X009779Y011608D01*
X009921Y011608D01*
X010053Y011554D01*
X010153Y011453D01*
X010208Y011322D01*
X010208Y011179D01*
X010153Y011048D01*
X010053Y010947D01*
X009930Y010896D01*
X010053Y010845D01*
X010153Y010745D01*
X010208Y010613D01*
X010208Y010471D01*
X010153Y010339D01*
X010181Y010405D02*
X013460Y010405D01*
X013460Y010503D02*
X011027Y010503D01*
X011025Y010501D02*
X011053Y010528D01*
X011072Y010563D01*
X011083Y010601D01*
X011083Y010846D01*
X010707Y010846D01*
X010707Y010471D01*
X010952Y010471D01*
X010991Y010481D01*
X011025Y010501D01*
X011083Y010602D02*
X012513Y010602D01*
X012469Y010700D02*
X011083Y010700D01*
X011083Y010799D02*
X012469Y010799D01*
X012469Y010897D02*
X010707Y010897D01*
X010707Y010946D02*
X010707Y010846D01*
X010607Y010846D01*
X010607Y010471D01*
X010362Y010471D01*
X010324Y010481D01*
X010289Y010501D01*
X010261Y010528D01*
X010242Y010563D01*
X010231Y010601D01*
X010231Y010846D01*
X010607Y010846D01*
X010607Y010946D01*
X010231Y010946D01*
X010231Y011191D01*
X010242Y011230D01*
X010261Y011264D01*
X010289Y011292D01*
X010324Y011312D01*
X010362Y011322D01*
X010607Y011322D01*
X010607Y010946D01*
X010707Y010946D01*
X011083Y010946D01*
X011083Y011191D01*
X011072Y011230D01*
X011053Y011264D01*
X011025Y011292D01*
X010991Y011312D01*
X010952Y011322D01*
X010707Y011322D01*
X010707Y010946D01*
X010707Y010996D02*
X010607Y010996D01*
X010607Y011094D02*
X010707Y011094D01*
X010707Y011193D02*
X010607Y011193D01*
X010607Y011291D02*
X010707Y011291D01*
X011025Y011291D02*
X012460Y011291D01*
X012460Y011193D02*
X011082Y011193D01*
X011083Y011094D02*
X012460Y011094D01*
X012460Y010996D02*
X011083Y010996D01*
X010707Y010799D02*
X010607Y010799D01*
X010607Y010897D02*
X009932Y010897D01*
X009768Y010897D02*
X009449Y010897D01*
X009449Y010799D02*
X009601Y010799D01*
X009528Y010700D02*
X009449Y010700D01*
X009449Y010602D02*
X009492Y010602D01*
X009492Y010503D02*
X009385Y010503D01*
X009519Y010405D02*
X009233Y010405D01*
X009233Y010306D02*
X009579Y010306D01*
X009721Y010208D02*
X009233Y010208D01*
X009233Y010109D02*
X011773Y010109D01*
X011696Y010011D02*
X009233Y010011D01*
X009233Y009912D02*
X011597Y009912D01*
X011499Y009814D02*
X009233Y009814D01*
X009233Y009715D02*
X011400Y009715D01*
X011302Y009617D02*
X009233Y009617D01*
X009233Y009518D02*
X011203Y009518D01*
X011105Y009420D02*
X009233Y009420D01*
X009233Y009321D02*
X011006Y009321D01*
X010908Y009223D02*
X009233Y009223D01*
X009233Y009124D02*
X010809Y009124D01*
X010251Y009026D02*
X009552Y009026D01*
X009577Y008927D02*
X010205Y008927D01*
X010205Y008829D02*
X009577Y008829D01*
X009577Y008730D02*
X010205Y008730D01*
X010205Y008632D02*
X009577Y008632D01*
X009577Y008533D02*
X010205Y008533D01*
X010205Y008435D02*
X009551Y008435D01*
X009573Y008336D02*
X010205Y008336D01*
X011095Y008336D02*
X013793Y008336D01*
X014190Y008139D02*
X015872Y008139D01*
X015872Y008041D02*
X014091Y008041D01*
X014080Y007942D02*
X014799Y007942D01*
X014810Y007953D02*
X014782Y007925D01*
X014762Y007891D01*
X014752Y007853D01*
X014752Y007647D01*
X015088Y007647D01*
X015088Y007547D01*
X014752Y007547D01*
X014752Y007341D01*
X014762Y007303D01*
X014782Y007269D01*
X014810Y007241D01*
X014844Y007221D01*
X014882Y007211D01*
X015088Y007211D01*
X015088Y007547D01*
X015188Y007547D01*
X015188Y007211D01*
X015394Y007211D01*
X015432Y007221D01*
X015467Y007241D01*
X015494Y007269D01*
X015514Y007303D01*
X015524Y007341D01*
X015524Y007547D01*
X015188Y007547D01*
X015188Y007647D01*
X015088Y007647D01*
X015088Y007983D01*
X014882Y007983D01*
X014844Y007973D01*
X014810Y007953D01*
X014752Y007844D02*
X014080Y007844D01*
X014080Y007745D02*
X014752Y007745D01*
X015088Y007745D02*
X015188Y007745D01*
X015188Y007647D02*
X015188Y007983D01*
X015394Y007983D01*
X015432Y007973D01*
X015467Y007953D01*
X015494Y007925D01*
X015514Y007891D01*
X015524Y007853D01*
X015524Y007647D01*
X015188Y007647D01*
X015796Y007647D01*
X015796Y007745D02*
X015524Y007745D01*
X015524Y007844D02*
X015796Y007844D01*
X015851Y007942D02*
X015478Y007942D01*
X015188Y007942D02*
X015088Y007942D01*
X015088Y007844D02*
X015188Y007844D01*
X015088Y007647D02*
X014080Y007647D01*
X014080Y007548D02*
X015088Y007548D01*
X015088Y007450D02*
X015188Y007450D01*
X015188Y007548D02*
X015796Y007548D01*
X015796Y007450D02*
X015524Y007450D01*
X015524Y007351D02*
X015796Y007351D01*
X015850Y007253D02*
X015478Y007253D01*
X015188Y007253D02*
X015088Y007253D01*
X015088Y007351D02*
X015188Y007351D01*
X014798Y007253D02*
X013902Y007253D01*
X014000Y007154D02*
X016498Y007154D01*
X016474Y007253D02*
X016596Y007253D01*
X016528Y007351D02*
X016695Y007351D01*
X016793Y007450D02*
X016528Y007450D01*
X016528Y007548D02*
X016860Y007548D01*
X016860Y007647D02*
X016528Y007647D01*
X016528Y007745D02*
X016860Y007745D01*
X016860Y007844D02*
X016528Y007844D01*
X016473Y007942D02*
X016897Y007942D01*
X016984Y008041D02*
X016452Y008041D01*
X016514Y008139D02*
X017083Y008139D01*
X017181Y008238D02*
X016613Y008238D01*
X016711Y008336D02*
X017280Y008336D01*
X017378Y008435D02*
X016807Y008435D01*
X016848Y008533D02*
X017477Y008533D01*
X017528Y008632D02*
X016850Y008632D01*
X016850Y008730D02*
X017616Y008730D01*
X017796Y008829D02*
X016850Y008829D01*
X016850Y008927D02*
X019440Y008927D01*
X019440Y009026D02*
X016850Y009026D01*
X016850Y009124D02*
X017490Y009124D01*
X017469Y009617D02*
X016930Y009617D01*
X016930Y009715D02*
X017537Y009715D01*
X017656Y010022D02*
X017814Y009956D01*
X018586Y009956D01*
X018744Y010022D01*
X018865Y010143D01*
X018892Y010209D01*
X018892Y009992D01*
X018968Y009916D01*
X019674Y009916D01*
X019750Y009992D01*
X019750Y010800D01*
X019674Y010877D01*
X018968Y010877D01*
X018892Y010800D01*
X018892Y010563D01*
X018865Y010630D01*
X018744Y010751D01*
X018586Y010816D01*
X017814Y010816D01*
X017656Y010751D01*
X017535Y010630D01*
X017470Y010472D01*
X017470Y010301D01*
X017535Y010143D01*
X017656Y010022D01*
X017683Y010011D02*
X016930Y010011D01*
X016930Y010109D02*
X017569Y010109D01*
X017509Y010208D02*
X016930Y010208D01*
X016539Y010306D02*
X017470Y010306D01*
X017470Y010405D02*
X016537Y010405D01*
X016537Y010503D02*
X017483Y010503D01*
X017524Y010602D02*
X016537Y010602D01*
X016537Y010700D02*
X017606Y010700D01*
X017772Y010799D02*
X016514Y010799D01*
X016152Y010996D02*
X018892Y010996D01*
X018892Y010992D02*
X018968Y010916D01*
X019674Y010916D01*
X019750Y010992D01*
X019750Y011800D01*
X019674Y011877D01*
X018968Y011877D01*
X018892Y011800D01*
X018892Y011606D01*
X018831Y011606D01*
X018831Y011647D01*
X018755Y011723D01*
X018214Y011723D01*
X018161Y011670D01*
X018152Y011685D01*
X018124Y011713D01*
X018090Y011733D01*
X018052Y011743D01*
X017864Y011743D01*
X017864Y011445D01*
X017767Y011445D01*
X017767Y011743D01*
X017579Y011743D01*
X017541Y011733D01*
X017507Y011713D01*
X017479Y011685D01*
X016489Y011685D01*
X016489Y011784D02*
X018892Y011784D01*
X018892Y011685D02*
X018793Y011685D01*
X018968Y011916D02*
X019674Y011916D01*
X019750Y011992D01*
X019750Y012186D01*
X020337Y012186D01*
X020537Y012386D01*
X020660Y012509D01*
X020660Y013412D01*
X020733Y013485D01*
X020733Y013907D01*
X020657Y013984D01*
X020234Y013984D01*
X020158Y013907D01*
X020158Y013485D01*
X020234Y013409D01*
X020240Y013409D01*
X020240Y012683D01*
X020163Y012606D01*
X019750Y012606D01*
X019750Y012800D01*
X019674Y012877D01*
X019366Y012877D01*
X019411Y012922D01*
X019458Y013035D01*
X019458Y013157D01*
X019411Y013271D01*
X019325Y013357D01*
X019211Y013404D01*
X019089Y013404D01*
X018975Y013357D01*
X018889Y013271D01*
X018842Y013157D01*
X018842Y013035D01*
X018889Y012922D01*
X018940Y012870D01*
X018940Y012848D01*
X018892Y012800D01*
X018892Y012523D01*
X018865Y012590D01*
X018744Y012711D01*
X018586Y012776D01*
X017814Y012776D01*
X017656Y012711D01*
X017535Y012590D01*
X017470Y012432D01*
X017470Y012261D01*
X017535Y012103D01*
X017656Y011982D01*
X017814Y011916D01*
X018586Y011916D01*
X018744Y011982D01*
X018865Y012103D01*
X018892Y012169D01*
X018892Y011992D01*
X018968Y011916D01*
X018903Y011981D02*
X018741Y011981D01*
X018841Y012079D02*
X018892Y012079D01*
X018872Y012572D02*
X018892Y012572D01*
X018892Y012670D02*
X018784Y012670D01*
X018892Y012769D02*
X018604Y012769D01*
X018871Y012966D02*
X016491Y012966D01*
X016491Y013064D02*
X018842Y013064D01*
X018844Y013163D02*
X016542Y013163D01*
X016607Y013261D02*
X018885Y013261D01*
X018981Y013360D02*
X018090Y013360D01*
X018124Y013379D01*
X018152Y013407D01*
X018161Y013423D01*
X018214Y013369D01*
X018755Y013369D01*
X018831Y013445D01*
X018831Y013486D01*
X019567Y013486D01*
X019567Y013485D01*
X019643Y013409D01*
X020066Y013409D01*
X020142Y013485D01*
X020142Y013907D01*
X020066Y013984D01*
X019643Y013984D01*
X019567Y013907D01*
X019567Y013906D01*
X018831Y013906D01*
X018831Y013947D01*
X018755Y014023D01*
X018214Y014023D01*
X018161Y013970D01*
X018152Y013985D01*
X018124Y014013D01*
X018090Y014033D01*
X018052Y014043D01*
X017864Y014043D01*
X017864Y013745D01*
X017767Y013745D01*
X017767Y014043D01*
X017579Y014043D01*
X017541Y014033D01*
X017507Y014013D01*
X017479Y013985D01*
X017459Y013951D01*
X017449Y013913D01*
X017449Y013745D01*
X017767Y013745D01*
X017767Y013648D01*
X017449Y013648D01*
X017449Y013480D01*
X017459Y013441D01*
X017479Y013407D01*
X017507Y013379D01*
X017541Y013360D01*
X016607Y013360D01*
X016607Y013458D02*
X017455Y013458D01*
X017449Y013557D02*
X016607Y013557D01*
X016607Y013655D02*
X017767Y013655D01*
X017767Y013648D02*
X017864Y013648D01*
X017864Y013349D01*
X018052Y013349D01*
X018090Y013360D01*
X017864Y013360D02*
X017767Y013360D01*
X017767Y013349D02*
X017767Y013648D01*
X017767Y013557D02*
X017864Y013557D01*
X017864Y013458D02*
X017767Y013458D01*
X017767Y013349D02*
X017579Y013349D01*
X017541Y013360D01*
X017449Y013754D02*
X016607Y013754D01*
X016607Y013852D02*
X017449Y013852D01*
X017459Y013951D02*
X016607Y013951D01*
X015796Y013951D02*
X015519Y013951D01*
X015514Y013969D02*
X015524Y013931D01*
X015524Y013646D01*
X015149Y013646D01*
X015149Y013546D01*
X015524Y013546D01*
X015524Y013261D01*
X015796Y013261D01*
X015796Y013360D02*
X015524Y013360D01*
X015524Y013458D02*
X015796Y013458D01*
X015796Y013557D02*
X015149Y013557D01*
X015149Y013546D02*
X015149Y013131D01*
X015394Y013131D01*
X015432Y013141D01*
X015467Y013161D01*
X015494Y013189D01*
X015514Y013223D01*
X015524Y013261D01*
X015468Y013163D02*
X015860Y013163D01*
X015911Y013064D02*
X014279Y013064D01*
X014377Y012966D02*
X015911Y012966D01*
X015911Y012867D02*
X014476Y012867D01*
X014574Y012769D02*
X015911Y012769D01*
X016491Y012769D02*
X017796Y012769D01*
X017616Y012670D02*
X016491Y012670D01*
X016491Y012572D02*
X017528Y012572D01*
X017487Y012473D02*
X016491Y012473D01*
X016491Y012375D02*
X017470Y012375D01*
X017470Y012276D02*
X016491Y012276D01*
X016491Y012178D02*
X017504Y012178D01*
X017559Y012079D02*
X016489Y012079D01*
X016489Y011981D02*
X017659Y011981D01*
X017767Y011685D02*
X017864Y011685D01*
X017864Y011587D02*
X017767Y011587D01*
X017767Y011488D02*
X017864Y011488D01*
X017767Y011445D02*
X017767Y011348D01*
X017449Y011348D01*
X017449Y011180D01*
X017459Y011141D01*
X017479Y011107D01*
X017507Y011079D01*
X017541Y011060D01*
X017579Y011049D01*
X017767Y011049D01*
X017767Y011348D01*
X017864Y011348D01*
X017864Y011049D01*
X018052Y011049D01*
X018090Y011060D01*
X018124Y011079D01*
X018152Y011107D01*
X018161Y011123D01*
X018214Y011069D01*
X018755Y011069D01*
X018831Y011145D01*
X018831Y011186D01*
X018892Y011186D01*
X018892Y010992D01*
X018892Y011094D02*
X018780Y011094D01*
X018892Y010799D02*
X018628Y010799D01*
X018794Y010700D02*
X018892Y010700D01*
X018892Y010602D02*
X018876Y010602D01*
X018891Y010208D02*
X018892Y010208D01*
X018892Y010109D02*
X018831Y010109D01*
X018892Y010011D02*
X018717Y010011D01*
X018721Y009743D02*
X018533Y009743D01*
X018533Y009445D01*
X018851Y009445D01*
X018851Y009613D01*
X018841Y009651D01*
X018821Y009685D01*
X018793Y009713D01*
X018759Y009733D01*
X018721Y009743D01*
X018790Y009715D02*
X021150Y009715D01*
X021150Y009617D02*
X019865Y009617D01*
X019933Y009518D02*
X021150Y009518D01*
X021150Y009420D02*
X019958Y009420D01*
X019952Y009321D02*
X021150Y009321D01*
X021150Y009223D02*
X019912Y009223D01*
X019860Y009124D02*
X021150Y009124D01*
X021150Y009026D02*
X019860Y009026D01*
X019860Y008927D02*
X021150Y008927D01*
X021150Y008829D02*
X019860Y008829D01*
X019860Y008730D02*
X021150Y008730D01*
X021150Y008632D02*
X019854Y008632D01*
X020310Y008533D02*
X021150Y008533D01*
X021150Y008435D02*
X020408Y008435D01*
X020507Y008336D02*
X021150Y008336D01*
X021150Y008238D02*
X020605Y008238D01*
X020655Y008139D02*
X021150Y008139D01*
X021150Y008041D02*
X020655Y008041D01*
X020655Y007942D02*
X021150Y007942D01*
X021150Y007844D02*
X020655Y007844D01*
X020655Y007745D02*
X021150Y007745D01*
X021150Y007647D02*
X020655Y007647D01*
X020655Y007548D02*
X021150Y007548D01*
X021150Y007450D02*
X020655Y007450D01*
X020655Y007351D02*
X021150Y007351D01*
X021150Y007253D02*
X020655Y007253D01*
X020655Y007154D02*
X021150Y007154D01*
X021150Y007056D02*
X020655Y007056D01*
X020655Y006957D02*
X021150Y006957D01*
X021150Y006859D02*
X020655Y006859D01*
X020655Y006760D02*
X021150Y006760D01*
X021150Y006662D02*
X020655Y006662D01*
X020655Y006563D02*
X021150Y006563D01*
X021150Y006465D02*
X020655Y006465D01*
X020655Y006366D02*
X021150Y006366D01*
X021150Y006268D02*
X020655Y006268D01*
X020655Y006169D02*
X021150Y006169D01*
X021150Y006071D02*
X020655Y006071D01*
X020655Y005972D02*
X021150Y005972D01*
X021150Y005874D02*
X020655Y005874D01*
X020655Y005775D02*
X021150Y005775D01*
X021150Y005677D02*
X020655Y005677D01*
X020655Y005578D02*
X021150Y005578D01*
X021150Y005480D02*
X020655Y005480D01*
X020659Y005381D02*
X021150Y005381D01*
X021150Y005283D02*
X020733Y005283D01*
X020733Y005184D02*
X021150Y005184D01*
X021150Y005086D02*
X020733Y005086D01*
X020733Y004987D02*
X021150Y004987D01*
X021150Y004889D02*
X020733Y004889D01*
X021150Y004790D02*
X018776Y004790D01*
X018755Y004769D02*
X018831Y004845D01*
X018831Y004886D01*
X019567Y004886D01*
X019567Y004885D01*
X019643Y004809D01*
X020066Y004809D01*
X020142Y004885D01*
X020142Y005307D01*
X020066Y005384D01*
X019643Y005384D01*
X019567Y005307D01*
X019567Y005306D01*
X018831Y005306D01*
X018831Y005347D01*
X018755Y005423D01*
X018214Y005423D01*
X018161Y005370D01*
X018152Y005385D01*
X018124Y005413D01*
X018090Y005433D01*
X018052Y005443D01*
X017864Y005443D01*
X017864Y005145D01*
X017767Y005145D01*
X017767Y005443D01*
X017579Y005443D01*
X017541Y005433D01*
X017507Y005413D01*
X017479Y005385D01*
X017459Y005351D01*
X017449Y005313D01*
X017449Y005145D01*
X017767Y005145D01*
X017767Y005048D01*
X017449Y005048D01*
X017449Y004880D01*
X017459Y004841D01*
X017479Y004807D01*
X017507Y004779D01*
X017541Y004760D01*
X017579Y004749D01*
X017767Y004749D01*
X017767Y005048D01*
X017864Y005048D01*
X017864Y004749D01*
X018052Y004749D01*
X018090Y004760D01*
X018124Y004779D01*
X018152Y004807D01*
X018161Y004823D01*
X018214Y004769D01*
X018755Y004769D01*
X018193Y004790D02*
X018135Y004790D01*
X017864Y004790D02*
X017767Y004790D01*
X017767Y004889D02*
X017864Y004889D01*
X017864Y004987D02*
X017767Y004987D01*
X017767Y005086D02*
X016528Y005086D01*
X016528Y005151D02*
X017533Y006156D01*
X017582Y006156D01*
X017656Y006082D01*
X017814Y006016D01*
X018586Y006016D01*
X018744Y006082D01*
X018865Y006203D01*
X018892Y006269D01*
X018892Y005992D01*
X018968Y005916D01*
X019674Y005916D01*
X019750Y005992D01*
X019750Y006800D01*
X019674Y006877D01*
X018968Y006877D01*
X018892Y006800D01*
X018892Y006623D01*
X018865Y006690D01*
X018744Y006811D01*
X018586Y006876D01*
X017814Y006876D01*
X017656Y006811D01*
X017582Y006736D01*
X017355Y006736D01*
X017248Y006692D01*
X016118Y005562D01*
X015872Y005562D01*
X015796Y005485D01*
X015796Y004905D01*
X015872Y004829D01*
X016452Y004829D01*
X016528Y004905D01*
X016528Y005151D01*
X016561Y005184D02*
X017449Y005184D01*
X017449Y005283D02*
X016659Y005283D01*
X016758Y005381D02*
X017477Y005381D01*
X017767Y005381D02*
X017864Y005381D01*
X017864Y005283D02*
X017767Y005283D01*
X017767Y005184D02*
X017864Y005184D01*
X018154Y005381D02*
X018172Y005381D01*
X018797Y005381D02*
X019641Y005381D01*
X020069Y005381D02*
X020231Y005381D01*
X020235Y005480D02*
X016856Y005480D01*
X016955Y005578D02*
X020235Y005578D01*
X020235Y005677D02*
X017053Y005677D01*
X017152Y005775D02*
X020235Y005775D01*
X020235Y005874D02*
X017250Y005874D01*
X017349Y005972D02*
X018912Y005972D01*
X018892Y006071D02*
X018717Y006071D01*
X018831Y006169D02*
X018892Y006169D01*
X018891Y006268D02*
X018892Y006268D01*
X018876Y006662D02*
X018892Y006662D01*
X018892Y006760D02*
X018794Y006760D01*
X018950Y006859D02*
X018628Y006859D01*
X018755Y007069D02*
X018831Y007145D01*
X018831Y007186D01*
X018892Y007186D01*
X018892Y006992D01*
X018968Y006916D01*
X019674Y006916D01*
X019750Y006992D01*
X019750Y007800D01*
X019674Y007877D01*
X018968Y007877D01*
X018892Y007800D01*
X018892Y007606D01*
X018831Y007606D01*
X018831Y007647D01*
X018755Y007723D01*
X018214Y007723D01*
X018161Y007670D01*
X018152Y007685D01*
X018124Y007713D01*
X018090Y007733D01*
X018052Y007743D01*
X017864Y007743D01*
X017864Y007445D01*
X017767Y007445D01*
X017767Y007743D01*
X017579Y007743D01*
X017541Y007733D01*
X017507Y007713D01*
X017479Y007685D01*
X017459Y007651D01*
X017449Y007613D01*
X017449Y007445D01*
X017767Y007445D01*
X017767Y007348D01*
X017449Y007348D01*
X017449Y007180D01*
X017459Y007141D01*
X017479Y007107D01*
X017507Y007079D01*
X017541Y007060D01*
X017579Y007049D01*
X017767Y007049D01*
X017767Y007348D01*
X017864Y007348D01*
X017864Y007049D01*
X018052Y007049D01*
X018090Y007060D01*
X018124Y007079D01*
X018152Y007107D01*
X018161Y007123D01*
X018214Y007069D01*
X018755Y007069D01*
X018831Y007154D02*
X018892Y007154D01*
X018892Y007056D02*
X018075Y007056D01*
X017864Y007056D02*
X017767Y007056D01*
X017767Y007154D02*
X017864Y007154D01*
X017864Y007253D02*
X017767Y007253D01*
X017767Y007351D02*
X017440Y007351D01*
X017440Y007450D02*
X017449Y007450D01*
X017440Y007548D02*
X017449Y007548D01*
X017440Y007647D02*
X017458Y007647D01*
X017509Y007745D02*
X018892Y007745D01*
X018892Y007647D02*
X018831Y007647D01*
X018935Y007844D02*
X017608Y007844D01*
X017706Y007942D02*
X018942Y007942D01*
X018892Y008041D02*
X018741Y008041D01*
X018841Y008139D02*
X018892Y008139D01*
X018872Y008632D02*
X018892Y008632D01*
X018892Y008730D02*
X018784Y008730D01*
X018920Y008829D02*
X018604Y008829D01*
X018533Y009049D02*
X018721Y009049D01*
X018759Y009060D01*
X018793Y009079D01*
X018821Y009107D01*
X018841Y009141D01*
X018851Y009180D01*
X018851Y009348D01*
X018533Y009348D01*
X018533Y009049D01*
X018533Y009124D02*
X018436Y009124D01*
X018436Y009223D02*
X018533Y009223D01*
X018533Y009321D02*
X018436Y009321D01*
X018533Y009420D02*
X019342Y009420D01*
X019348Y009321D02*
X018851Y009321D01*
X018851Y009223D02*
X019388Y009223D01*
X019440Y009124D02*
X018831Y009124D01*
X018851Y009518D02*
X019367Y009518D01*
X019435Y009617D02*
X018850Y009617D01*
X018533Y009617D02*
X018436Y009617D01*
X018436Y009715D02*
X018533Y009715D01*
X018180Y009715D02*
X018094Y009715D01*
X018436Y009518D02*
X018533Y009518D01*
X019750Y010011D02*
X021150Y010011D01*
X021150Y010109D02*
X019750Y010109D01*
X019750Y010208D02*
X021150Y010208D01*
X021150Y010306D02*
X019750Y010306D01*
X019750Y010405D02*
X021150Y010405D01*
X021150Y010503D02*
X019750Y010503D01*
X019750Y010602D02*
X021150Y010602D01*
X021150Y010700D02*
X019750Y010700D01*
X019750Y010799D02*
X021150Y010799D01*
X021150Y010897D02*
X016108Y010897D01*
X015963Y010770D02*
X015963Y010277D01*
X015944Y010296D01*
X015937Y010296D01*
X015937Y010482D01*
X015940Y010488D01*
X015940Y010761D01*
X015963Y010770D01*
X015963Y010700D02*
X015940Y010700D01*
X015940Y010602D02*
X015963Y010602D01*
X015963Y010503D02*
X015940Y010503D01*
X015937Y010405D02*
X015963Y010405D01*
X015963Y010306D02*
X015937Y010306D01*
X016020Y010011D02*
X016190Y010011D01*
X016190Y009912D02*
X016020Y009912D01*
X016020Y009814D02*
X016190Y009814D01*
X016190Y009715D02*
X016020Y009715D01*
X016020Y009617D02*
X016190Y009617D01*
X016190Y009518D02*
X016020Y009518D01*
X016020Y009420D02*
X016190Y009420D01*
X016190Y009321D02*
X016020Y009321D01*
X016010Y009223D02*
X016200Y009223D01*
X016270Y009124D02*
X015675Y009124D01*
X015576Y009026D02*
X016270Y009026D01*
X016270Y008927D02*
X015478Y008927D01*
X015379Y008829D02*
X016270Y008829D01*
X016270Y008730D02*
X015281Y008730D01*
X014682Y008632D02*
X016186Y008632D01*
X016088Y008533D02*
X014584Y008533D01*
X014485Y008435D02*
X015989Y008435D01*
X015906Y008336D02*
X014387Y008336D01*
X014288Y008238D02*
X015872Y008238D01*
X014752Y007450D02*
X013365Y007450D01*
X013464Y007351D02*
X014752Y007351D01*
X014049Y007056D02*
X016399Y007056D01*
X016301Y006957D02*
X014080Y006957D01*
X014080Y006859D02*
X016202Y006859D01*
X016104Y006760D02*
X014059Y006760D01*
X014018Y006662D02*
X015533Y006662D01*
X015407Y006563D02*
X013925Y006563D01*
X013375Y006563D02*
X013252Y006563D01*
X013282Y006662D02*
X012518Y006662D01*
X012559Y006760D02*
X013241Y006760D01*
X013220Y006859D02*
X012580Y006859D01*
X012580Y006957D02*
X013220Y006957D01*
X013222Y007056D02*
X012549Y007056D01*
X012500Y007154D02*
X013123Y007154D01*
X013220Y007647D02*
X012509Y007647D01*
X012553Y007745D02*
X013220Y007745D01*
X013220Y007844D02*
X012580Y007844D01*
X012580Y007942D02*
X013220Y007942D01*
X013220Y008041D02*
X012556Y008041D01*
X012515Y008139D02*
X013220Y008139D01*
X013220Y008238D02*
X012417Y008238D01*
X011806Y008632D02*
X011095Y008632D01*
X011095Y008730D02*
X011753Y008730D01*
X011720Y008829D02*
X011095Y008829D01*
X011150Y008927D02*
X011720Y008927D01*
X011738Y009026D02*
X011248Y009026D01*
X011347Y009124D02*
X011779Y009124D01*
X011868Y009223D02*
X011445Y009223D01*
X011741Y009518D02*
X011939Y009518D01*
X011853Y010208D02*
X009979Y010208D01*
X010208Y010503D02*
X010287Y010503D01*
X010231Y010602D02*
X010208Y010602D01*
X010231Y010700D02*
X010172Y010700D01*
X010231Y010799D02*
X010099Y010799D01*
X010101Y010996D02*
X010231Y010996D01*
X010231Y011094D02*
X010173Y011094D01*
X010208Y011193D02*
X010232Y011193D01*
X010208Y011291D02*
X010289Y011291D01*
X010180Y011390D02*
X012460Y011390D01*
X012460Y011488D02*
X012350Y011488D01*
X012449Y011587D02*
X012460Y011587D01*
X012840Y011488D02*
X012922Y011488D01*
X012840Y011390D02*
X015120Y011390D01*
X015120Y011488D02*
X013378Y011488D01*
X013477Y011587D02*
X015120Y011587D01*
X014811Y011685D02*
X013575Y011685D01*
X013600Y011784D02*
X014811Y011784D01*
X014811Y011882D02*
X013200Y011882D01*
X013200Y011784D02*
X013100Y011784D01*
X013100Y011685D02*
X013200Y011685D01*
X013200Y011587D02*
X013100Y011587D01*
X013100Y011488D02*
X013200Y011488D01*
X012840Y011291D02*
X015120Y011291D01*
X015120Y011193D02*
X013785Y011193D01*
X013831Y011094D02*
X015120Y011094D01*
X015148Y010996D02*
X013831Y010996D01*
X013831Y010897D02*
X015192Y010897D01*
X015079Y010799D02*
X015021Y010799D01*
X015021Y010872D02*
X014873Y010872D01*
X014835Y010862D01*
X014800Y010842D01*
X014772Y010814D01*
X014753Y010780D01*
X014743Y010741D01*
X014743Y010475D01*
X015021Y010475D01*
X015021Y010872D01*
X015021Y010700D02*
X015079Y010700D01*
X015079Y010602D02*
X015021Y010602D01*
X015021Y010503D02*
X015079Y010503D01*
X015357Y010503D02*
X015360Y010503D01*
X015357Y010405D02*
X015363Y010405D01*
X015357Y010306D02*
X015363Y010306D01*
X015357Y010602D02*
X015360Y010602D01*
X015357Y010700D02*
X015360Y010700D01*
X014764Y010799D02*
X013840Y010799D01*
X013840Y010700D02*
X014743Y010700D01*
X014743Y010602D02*
X013840Y010602D01*
X013840Y010503D02*
X014743Y010503D01*
X014743Y010405D02*
X013840Y010405D01*
X013840Y010306D02*
X014443Y010306D01*
X014442Y010306D02*
X014408Y010286D01*
X014380Y010258D01*
X014360Y010224D01*
X014350Y010186D01*
X014350Y009776D01*
X014690Y009776D01*
X014690Y010316D01*
X014480Y010316D01*
X014442Y010306D01*
X014356Y010208D02*
X013840Y010208D01*
X013840Y010109D02*
X014350Y010109D01*
X014350Y010011D02*
X013840Y010011D01*
X013928Y009912D02*
X014350Y009912D01*
X014350Y009814D02*
X013937Y009814D01*
X014690Y009814D02*
X014790Y009814D01*
X014790Y009912D02*
X014690Y009912D01*
X014690Y010011D02*
X014790Y010011D01*
X014755Y010109D02*
X014690Y010109D01*
X014690Y010208D02*
X014743Y010208D01*
X014743Y010306D02*
X014690Y010306D01*
X015130Y010011D02*
X015280Y010011D01*
X015280Y009912D02*
X015130Y009912D01*
X015130Y009814D02*
X015280Y009814D01*
X014790Y009518D02*
X014690Y009518D01*
X014690Y009420D02*
X014790Y009420D01*
X014790Y009321D02*
X014690Y009321D01*
X014690Y009223D02*
X014790Y009223D01*
X016930Y009814D02*
X021150Y009814D01*
X021150Y009912D02*
X016930Y009912D01*
X017492Y011094D02*
X016180Y011094D01*
X016180Y011193D02*
X017449Y011193D01*
X017449Y011291D02*
X016180Y011291D01*
X016180Y011390D02*
X017767Y011390D01*
X017767Y011445D02*
X017449Y011445D01*
X017449Y011613D01*
X017459Y011651D01*
X017479Y011685D01*
X017449Y011587D02*
X016180Y011587D01*
X016180Y011488D02*
X017449Y011488D01*
X017767Y011291D02*
X017864Y011291D01*
X017864Y011193D02*
X017767Y011193D01*
X017767Y011094D02*
X017864Y011094D01*
X018139Y011094D02*
X018189Y011094D01*
X018176Y011685D02*
X018152Y011685D01*
X019750Y011685D02*
X021150Y011685D01*
X021150Y011587D02*
X019750Y011587D01*
X019750Y011488D02*
X021150Y011488D01*
X021150Y011390D02*
X019750Y011390D01*
X019750Y011291D02*
X021150Y011291D01*
X021150Y011193D02*
X019750Y011193D01*
X019750Y011094D02*
X021150Y011094D01*
X021150Y010996D02*
X019750Y010996D01*
X019750Y011784D02*
X021150Y011784D01*
X021150Y011882D02*
X016489Y011882D01*
X014811Y011981D02*
X013600Y011981D01*
X013600Y012079D02*
X014811Y012079D01*
X014811Y012178D02*
X013505Y012178D01*
X013406Y012276D02*
X014473Y012276D01*
X014374Y012375D02*
X012840Y012375D01*
X012840Y012473D02*
X012965Y012473D01*
X012972Y012466D02*
X013328Y012466D01*
X013580Y012718D01*
X013580Y013074D01*
X013328Y013326D01*
X012972Y013326D01*
X012720Y013074D01*
X012720Y012718D01*
X012972Y012466D01*
X012866Y012572D02*
X012743Y012572D01*
X012768Y012670D02*
X012645Y012670D01*
X012580Y012769D02*
X012720Y012769D01*
X012720Y012867D02*
X012580Y012867D01*
X012580Y012966D02*
X012720Y012966D01*
X012720Y013064D02*
X012580Y013064D01*
X012492Y013163D02*
X012808Y013163D01*
X012784Y013261D02*
X012907Y013261D01*
X012882Y013360D02*
X013389Y013360D01*
X013393Y013261D02*
X013488Y013261D01*
X013492Y013163D02*
X013586Y013163D01*
X013580Y013064D02*
X013685Y013064D01*
X013783Y012966D02*
X013580Y012966D01*
X013580Y012867D02*
X013882Y012867D01*
X013980Y012769D02*
X013580Y012769D01*
X013532Y012670D02*
X014079Y012670D01*
X014177Y012572D02*
X013434Y012572D01*
X013335Y012473D02*
X014276Y012473D01*
X014673Y012670D02*
X014828Y012670D01*
X014803Y013131D02*
X015049Y013131D01*
X015049Y013546D01*
X015149Y013546D01*
X015149Y013458D02*
X015049Y013458D01*
X015049Y013546D02*
X014673Y013546D01*
X014673Y013261D01*
X014082Y013261D01*
X014180Y013163D02*
X014730Y013163D01*
X014731Y013161D02*
X014765Y013141D01*
X014803Y013131D01*
X014731Y013161D02*
X014703Y013189D01*
X014683Y013223D01*
X014673Y013261D01*
X014673Y013360D02*
X013983Y013360D01*
X013885Y013458D02*
X014673Y013458D01*
X014673Y013646D02*
X014673Y013931D01*
X014683Y013969D01*
X014703Y014003D01*
X014731Y014031D01*
X014765Y014051D01*
X014803Y014061D01*
X015049Y014061D01*
X015049Y013646D01*
X015149Y013646D01*
X015149Y014061D01*
X015394Y014061D01*
X015432Y014051D01*
X015467Y014031D01*
X015494Y014003D01*
X015514Y013969D01*
X015435Y014049D02*
X021150Y014049D01*
X021150Y013951D02*
X020690Y013951D01*
X020733Y013852D02*
X021150Y013852D01*
X021150Y013754D02*
X020733Y013754D01*
X020733Y013655D02*
X021150Y013655D01*
X021150Y013557D02*
X020733Y013557D01*
X020706Y013458D02*
X021150Y013458D01*
X021150Y013360D02*
X020660Y013360D01*
X020660Y013261D02*
X021150Y013261D01*
X021150Y013163D02*
X020660Y013163D01*
X020660Y013064D02*
X021150Y013064D01*
X021150Y012966D02*
X020660Y012966D01*
X020660Y012867D02*
X021150Y012867D01*
X021150Y012769D02*
X020660Y012769D01*
X020660Y012670D02*
X021150Y012670D01*
X021150Y012572D02*
X020660Y012572D01*
X020624Y012473D02*
X021150Y012473D01*
X021150Y012375D02*
X020526Y012375D01*
X020427Y012276D02*
X021150Y012276D01*
X021150Y012178D02*
X019750Y012178D01*
X019750Y012079D02*
X021150Y012079D01*
X021150Y011981D02*
X019739Y011981D01*
X019750Y012670D02*
X020227Y012670D01*
X020240Y012769D02*
X019750Y012769D01*
X019684Y012867D02*
X020240Y012867D01*
X020240Y012966D02*
X019429Y012966D01*
X019458Y013064D02*
X020240Y013064D01*
X020240Y013163D02*
X019456Y013163D01*
X019415Y013261D02*
X020240Y013261D01*
X020240Y013360D02*
X019319Y013360D01*
X019594Y013458D02*
X018831Y013458D01*
X018827Y013951D02*
X019610Y013951D01*
X020099Y013951D02*
X020201Y013951D01*
X020158Y013852D02*
X020142Y013852D01*
X020142Y013754D02*
X020158Y013754D01*
X020158Y013655D02*
X020142Y013655D01*
X020142Y013557D02*
X020158Y013557D01*
X020184Y013458D02*
X020116Y013458D01*
X018940Y012867D02*
X016491Y012867D01*
X015149Y013163D02*
X015049Y013163D01*
X015049Y013261D02*
X015149Y013261D01*
X015149Y013360D02*
X015049Y013360D01*
X015049Y013546D02*
X015049Y013646D01*
X014673Y013646D01*
X014673Y013655D02*
X013688Y013655D01*
X013786Y013557D02*
X015049Y013557D01*
X015049Y013655D02*
X015149Y013655D01*
X015149Y013754D02*
X015049Y013754D01*
X015049Y013852D02*
X015149Y013852D01*
X015149Y013951D02*
X015049Y013951D01*
X015049Y014049D02*
X015149Y014049D01*
X014762Y014049D02*
X013580Y014049D01*
X013580Y013951D02*
X014679Y013951D01*
X014673Y013852D02*
X013580Y013852D01*
X013589Y013754D02*
X014673Y013754D01*
X015524Y013754D02*
X015796Y013754D01*
X015796Y013852D02*
X015524Y013852D01*
X015524Y013655D02*
X015796Y013655D01*
X017767Y013754D02*
X017864Y013754D01*
X017864Y013852D02*
X017767Y013852D01*
X017767Y013951D02*
X017864Y013951D01*
X021150Y014148D02*
X013507Y014148D01*
X012812Y014166D02*
X012720Y014074D01*
X012720Y013735D01*
X012571Y013586D01*
X012448Y013586D01*
X012580Y013718D01*
X012580Y014074D01*
X012488Y014166D01*
X012812Y014166D01*
X012793Y014148D02*
X012507Y014148D01*
X012580Y014049D02*
X012720Y014049D01*
X012720Y013951D02*
X012580Y013951D01*
X012580Y013852D02*
X012720Y013852D01*
X012720Y013754D02*
X012580Y013754D01*
X012640Y013655D02*
X012517Y013655D01*
X012981Y013458D02*
X013291Y013458D01*
X011852Y013586D02*
X011571Y013586D01*
X010771Y012786D01*
X010331Y012786D01*
X010331Y012847D01*
X010255Y012923D01*
X009714Y012923D01*
X009650Y012859D01*
X009586Y012923D01*
X009045Y012923D01*
X008969Y012847D01*
X008969Y012518D01*
X008964Y012514D01*
X008853Y012402D01*
X008853Y011355D01*
X008622Y011586D01*
X007029Y011586D01*
X006900Y011715D01*
X007401Y011715D01*
X007477Y011791D01*
X007477Y011911D01*
X007863Y011911D01*
X007863Y011890D01*
X007939Y011813D01*
X008361Y011813D01*
X008437Y011890D01*
X008437Y012312D01*
X008361Y012388D01*
X008344Y012388D01*
X008365Y012394D01*
X008400Y012414D01*
X008428Y012442D01*
X008447Y012476D01*
X008457Y012514D01*
X008457Y012663D01*
X008179Y012663D01*
X008179Y012720D01*
X008457Y012720D01*
X008457Y012869D01*
X008447Y012907D01*
X008428Y012941D01*
X008400Y012969D01*
X008365Y012989D01*
X008327Y012999D01*
X008179Y012999D01*
X008179Y012720D01*
X008121Y012720D01*
X008121Y012663D01*
X007843Y012663D01*
X007843Y012514D01*
X007853Y012476D01*
X007872Y012442D01*
X007900Y012414D01*
X007935Y012394D01*
X007956Y012388D01*
X007939Y012388D01*
X007863Y012312D01*
X007863Y012291D01*
X007477Y012291D01*
X007477Y012332D01*
X007413Y012396D01*
X007477Y012460D01*
X007477Y013001D01*
X007401Y013077D01*
X007340Y013077D01*
X007340Y013103D01*
X007432Y013141D01*
X007541Y013250D01*
X007600Y013392D01*
X007600Y014061D01*
X007557Y014166D01*
X007656Y014166D01*
X007613Y014061D01*
X007613Y013392D01*
X007672Y013250D01*
X007781Y013141D01*
X007923Y013082D01*
X008077Y013082D01*
X008220Y013141D01*
X008329Y013250D01*
X008388Y013392D01*
X008388Y014061D01*
X008344Y014166D01*
X008444Y014166D01*
X008400Y014061D01*
X008400Y013392D01*
X008459Y013250D01*
X008568Y013141D01*
X008711Y013082D01*
X008865Y013082D01*
X009007Y013141D01*
X009116Y013250D01*
X009175Y013392D01*
X009175Y014061D01*
X009132Y014166D01*
X009231Y014166D01*
X009188Y014061D01*
X009188Y013392D01*
X009247Y013250D01*
X009356Y013141D01*
X009498Y013082D01*
X009652Y013082D01*
X009795Y013141D01*
X009904Y013250D01*
X009962Y013392D01*
X009965Y013374D01*
X009985Y013313D01*
X010014Y013256D01*
X010052Y013204D01*
X010097Y013159D01*
X010149Y013121D01*
X010206Y013092D01*
X010267Y013072D01*
X010331Y013062D01*
X010334Y013062D01*
X010334Y013698D01*
X010391Y013698D01*
X010391Y013062D01*
X010395Y013062D01*
X010458Y013072D01*
X010519Y013092D01*
X010576Y013121D01*
X010628Y013159D01*
X010673Y013204D01*
X010711Y013256D01*
X010740Y013313D01*
X010760Y013374D01*
X010770Y013437D01*
X010770Y013698D01*
X010391Y013698D01*
X010391Y013756D01*
X010334Y013756D01*
X010334Y014166D01*
X010391Y014166D01*
X010391Y013756D01*
X010770Y013756D01*
X010770Y014016D01*
X010760Y014080D01*
X010740Y014141D01*
X010727Y014166D01*
X011812Y014166D01*
X011720Y014074D01*
X011720Y013718D01*
X011852Y013586D01*
X011783Y013655D02*
X010770Y013655D01*
X010770Y013557D02*
X011542Y013557D01*
X011443Y013458D02*
X010770Y013458D01*
X010755Y013360D02*
X011345Y013360D01*
X011246Y013261D02*
X010714Y013261D01*
X010632Y013163D02*
X011148Y013163D01*
X011049Y013064D02*
X010409Y013064D01*
X010391Y013064D02*
X010334Y013064D01*
X010316Y013064D02*
X007414Y013064D01*
X007454Y013163D02*
X007759Y013163D01*
X007667Y013261D02*
X007546Y013261D01*
X007587Y013360D02*
X007626Y013360D01*
X007613Y013458D02*
X007600Y013458D01*
X007600Y013557D02*
X007613Y013557D01*
X007600Y013655D02*
X007613Y013655D01*
X007600Y013754D02*
X007613Y013754D01*
X007600Y013852D02*
X007613Y013852D01*
X007600Y013951D02*
X007613Y013951D01*
X007600Y014049D02*
X007613Y014049D01*
X007649Y014148D02*
X007565Y014148D01*
X008352Y014148D02*
X008436Y014148D01*
X008400Y014049D02*
X008388Y014049D01*
X008388Y013951D02*
X008400Y013951D01*
X008388Y013852D02*
X008400Y013852D01*
X008388Y013754D02*
X008400Y013754D01*
X008388Y013655D02*
X008400Y013655D01*
X008388Y013557D02*
X008400Y013557D01*
X008388Y013458D02*
X008400Y013458D01*
X008414Y013360D02*
X008374Y013360D01*
X008334Y013261D02*
X008455Y013261D01*
X008547Y013163D02*
X008242Y013163D01*
X008121Y012999D02*
X007973Y012999D01*
X007935Y012989D01*
X007900Y012969D01*
X007872Y012941D01*
X007853Y012907D01*
X007843Y012869D01*
X007843Y012720D01*
X008121Y012720D01*
X008121Y012999D01*
X008121Y012966D02*
X008179Y012966D01*
X008179Y012867D02*
X008121Y012867D01*
X008121Y012769D02*
X008179Y012769D01*
X008179Y012670D02*
X008969Y012670D01*
X008969Y012572D02*
X008457Y012572D01*
X008446Y012473D02*
X008924Y012473D01*
X008853Y012375D02*
X008375Y012375D01*
X008437Y012276D02*
X008853Y012276D01*
X008853Y012178D02*
X008437Y012178D01*
X008437Y012079D02*
X008853Y012079D01*
X008853Y011981D02*
X008437Y011981D01*
X008430Y011882D02*
X008853Y011882D01*
X008853Y011784D02*
X007469Y011784D01*
X007477Y011882D02*
X007870Y011882D01*
X007028Y011587D02*
X008853Y011587D01*
X008853Y011685D02*
X006930Y011685D01*
X006821Y011094D02*
X007412Y011094D01*
X007410Y010700D02*
X004675Y010700D01*
X004675Y010602D02*
X006008Y010602D01*
X006008Y010503D02*
X004675Y010503D01*
X004675Y010405D02*
X006008Y010405D01*
X006008Y010306D02*
X004675Y010306D01*
X004675Y010208D02*
X006008Y010208D01*
X006008Y010109D02*
X004675Y010109D01*
X004675Y010011D02*
X006008Y010011D01*
X006008Y009912D02*
X004675Y009912D01*
X004675Y009814D02*
X006008Y009814D01*
X006008Y009715D02*
X004675Y009715D01*
X004675Y009617D02*
X006008Y009617D01*
X006008Y009518D02*
X004675Y009518D01*
X004675Y009420D02*
X006008Y009420D01*
X006008Y009321D02*
X004675Y009321D01*
X004675Y009223D02*
X006008Y009223D01*
X006008Y009124D02*
X004675Y009124D01*
X004675Y009026D02*
X005991Y009026D01*
X005988Y008927D02*
X004675Y008927D01*
X004675Y008829D02*
X005988Y008829D01*
X006008Y008336D02*
X004675Y008336D01*
X004675Y008238D02*
X006008Y008238D01*
X006008Y008139D02*
X004675Y008139D01*
X004598Y008041D02*
X006008Y008041D01*
X006008Y007942D02*
X004499Y007942D01*
X004552Y007995D02*
X004552Y007995D01*
X004401Y007844D02*
X006008Y007844D01*
X006008Y007745D02*
X004302Y007745D01*
X004204Y007647D02*
X006008Y007647D01*
X006008Y007548D02*
X004105Y007548D01*
X004045Y007450D02*
X006008Y007450D01*
X006008Y007351D02*
X004045Y007351D01*
X004045Y007253D02*
X006008Y007253D01*
X006023Y007154D02*
X004045Y007154D01*
X003625Y007154D02*
X002277Y007154D01*
X002292Y007253D02*
X003625Y007253D01*
X003625Y007351D02*
X002292Y007351D01*
X002292Y007450D02*
X002900Y007450D01*
X002801Y007548D02*
X002292Y007548D01*
X002292Y007647D02*
X002703Y007647D01*
X002604Y007745D02*
X002292Y007745D01*
X002292Y007844D02*
X002506Y007844D01*
X002440Y007942D02*
X002292Y007942D01*
X002292Y008041D02*
X002440Y008041D01*
X002440Y008139D02*
X002292Y008139D01*
X002292Y008238D02*
X002440Y008238D01*
X002440Y008336D02*
X002292Y008336D01*
X002304Y008435D02*
X002440Y008435D01*
X002440Y008533D02*
X002312Y008533D01*
X002312Y008632D02*
X002418Y008632D01*
X001867Y008581D02*
X001867Y008581D01*
X001421Y008581D01*
X001867Y008581D01*
X001421Y008533D02*
X001176Y008533D01*
X001177Y008435D02*
X001429Y008435D01*
X001441Y008336D02*
X001177Y008336D01*
X001177Y008238D02*
X001441Y008238D01*
X001441Y008139D02*
X001177Y008139D01*
X001177Y008041D02*
X001441Y008041D01*
X001441Y007942D02*
X001128Y007942D01*
X001097Y007844D02*
X001441Y007844D01*
X001441Y007745D02*
X001137Y007745D01*
X001137Y007647D02*
X001441Y007647D01*
X001441Y007548D02*
X001137Y007548D01*
X001137Y007450D02*
X001441Y007450D01*
X001441Y007351D02*
X001109Y007351D01*
X001125Y007253D02*
X001441Y007253D01*
X001456Y007154D02*
X001157Y007154D01*
X001157Y007056D02*
X003625Y007056D01*
X002347Y006957D02*
X001157Y006957D01*
X001157Y006972D02*
X000879Y006972D01*
X000879Y006693D01*
X001027Y006693D01*
X001065Y006704D01*
X001100Y006723D01*
X001128Y006751D01*
X001147Y006785D01*
X001157Y006824D01*
X001157Y006972D01*
X001157Y006859D02*
X002347Y006859D01*
X002347Y006760D02*
X001133Y006760D01*
X000879Y006760D02*
X000821Y006760D01*
X000821Y006859D02*
X000879Y006859D01*
X000879Y006957D02*
X000821Y006957D01*
X000769Y006169D02*
X000380Y006169D01*
X000380Y006071D02*
X000608Y006071D01*
X000510Y005972D02*
X000380Y005972D01*
X000380Y005874D02*
X000417Y005874D01*
X003099Y007844D02*
X003807Y007844D01*
X003905Y007942D02*
X003001Y007942D01*
X002902Y008041D02*
X004004Y008041D01*
X001421Y008632D02*
X001148Y008632D01*
X001177Y009124D02*
X001441Y009124D01*
X001441Y009223D02*
X001155Y009223D01*
X001111Y009321D02*
X001441Y009321D01*
X001441Y009420D02*
X001152Y009420D01*
X001158Y009518D02*
X001441Y009518D01*
X001441Y009617D02*
X001134Y009617D01*
X001067Y009715D02*
X001441Y009715D01*
X002292Y009617D02*
X002520Y009617D01*
X003340Y009715D02*
X003460Y009715D01*
X003460Y009617D02*
X003365Y009617D01*
X003433Y009518D02*
X003460Y009518D01*
X003458Y009420D02*
X003460Y009420D01*
X003452Y009321D02*
X003460Y009321D01*
X003460Y009223D02*
X003412Y009223D01*
X003460Y009124D02*
X003298Y009124D01*
X003002Y009124D02*
X002292Y009124D01*
X003340Y009814D02*
X003460Y009814D01*
X003460Y009912D02*
X003340Y009912D01*
X003340Y010011D02*
X003460Y010011D01*
X003368Y010109D02*
X003340Y010109D01*
X002427Y010109D02*
X002292Y010109D01*
X000891Y011100D02*
X000891Y011100D01*
X002765Y012375D02*
X002910Y012375D01*
X002910Y012473D02*
X002765Y012473D01*
X002794Y012572D02*
X002910Y012572D01*
X002893Y012670D02*
X003454Y012670D01*
X004970Y012375D02*
X005342Y012375D01*
X005348Y012473D02*
X004996Y012473D01*
X005094Y012572D02*
X005390Y012572D01*
X005506Y012670D02*
X005193Y012670D01*
X005794Y012670D02*
X006307Y012670D01*
X006406Y012572D02*
X005910Y012572D01*
X005261Y012276D02*
X004970Y012276D01*
X004970Y012178D02*
X005163Y012178D01*
X005064Y012079D02*
X004970Y012079D01*
X006840Y012349D02*
X006840Y012444D01*
X006887Y012396D01*
X006840Y012349D01*
X006840Y012375D02*
X006866Y012375D01*
X007434Y012375D02*
X007925Y012375D01*
X007854Y012473D02*
X007477Y012473D01*
X007477Y012572D02*
X007843Y012572D01*
X008121Y012670D02*
X007477Y012670D01*
X007477Y012769D02*
X007843Y012769D01*
X007843Y012867D02*
X007477Y012867D01*
X007477Y012966D02*
X007897Y012966D01*
X008403Y012966D02*
X010951Y012966D01*
X010852Y012867D02*
X010311Y012867D01*
X010334Y013163D02*
X010391Y013163D01*
X010391Y013261D02*
X010334Y013261D01*
X010334Y013360D02*
X010391Y013360D01*
X010391Y013458D02*
X010334Y013458D01*
X010334Y013557D02*
X010391Y013557D01*
X010391Y013655D02*
X010334Y013655D01*
X010334Y013698D02*
X009963Y013698D01*
X009963Y013756D01*
X010334Y013756D01*
X010334Y013698D01*
X010334Y013754D02*
X009963Y013754D01*
X010334Y013852D02*
X010391Y013852D01*
X010391Y013754D02*
X011720Y013754D01*
X011720Y013852D02*
X010770Y013852D01*
X010770Y013951D02*
X011720Y013951D01*
X011720Y014049D02*
X010765Y014049D01*
X010737Y014148D02*
X011793Y014148D01*
X010391Y014148D02*
X010334Y014148D01*
X010334Y014049D02*
X010391Y014049D01*
X010391Y013951D02*
X010334Y013951D01*
X009962Y014062D02*
X009919Y014166D01*
X009998Y014166D01*
X009985Y014141D01*
X009965Y014080D01*
X009962Y014062D01*
X009988Y014148D02*
X009927Y014148D01*
X009223Y014148D02*
X009140Y014148D01*
X009175Y014049D02*
X009188Y014049D01*
X009175Y013951D02*
X009188Y013951D01*
X009175Y013852D02*
X009188Y013852D01*
X009175Y013754D02*
X009188Y013754D01*
X009175Y013655D02*
X009188Y013655D01*
X009175Y013557D02*
X009188Y013557D01*
X009175Y013458D02*
X009188Y013458D01*
X009201Y013360D02*
X009162Y013360D01*
X009121Y013261D02*
X009242Y013261D01*
X009334Y013163D02*
X009029Y013163D01*
X008989Y012867D02*
X008457Y012867D01*
X008457Y012769D02*
X008969Y012769D01*
X009642Y012867D02*
X009658Y012867D01*
X009816Y013163D02*
X010093Y013163D01*
X010011Y013261D02*
X009908Y013261D01*
X009949Y013360D02*
X009970Y013360D01*
X011291Y012769D02*
X011720Y012769D01*
X011720Y012718D02*
X011972Y012466D01*
X012311Y012466D01*
X012460Y012317D01*
X012460Y012194D01*
X012328Y012326D01*
X011972Y012326D01*
X011732Y012086D01*
X009233Y012086D01*
X009233Y012245D01*
X009257Y012269D01*
X009586Y012269D01*
X009650Y012334D01*
X009714Y012269D01*
X010255Y012269D01*
X010331Y012345D01*
X010331Y012406D01*
X010929Y012406D01*
X011040Y012517D01*
X011729Y013206D01*
X011852Y013206D01*
X011720Y013074D01*
X011720Y012718D01*
X011768Y012670D02*
X011193Y012670D01*
X011094Y012572D02*
X011866Y012572D01*
X011965Y012473D02*
X010996Y012473D01*
X011390Y012867D02*
X011720Y012867D01*
X011720Y012966D02*
X011488Y012966D01*
X011587Y013064D02*
X011720Y013064D01*
X011685Y013163D02*
X011808Y013163D01*
X012403Y012375D02*
X010331Y012375D01*
X010262Y012276D02*
X011922Y012276D01*
X011823Y012178D02*
X009233Y012178D01*
X009593Y012276D02*
X009707Y012276D01*
X009726Y011587D02*
X009233Y011587D01*
X009233Y011685D02*
X011753Y011685D01*
X011851Y011587D02*
X009974Y011587D01*
X010119Y011488D02*
X011950Y011488D01*
X013116Y011193D02*
X013184Y011193D01*
X013182Y010602D02*
X013118Y010602D01*
X010707Y010602D02*
X010607Y010602D01*
X010607Y010700D02*
X010707Y010700D01*
X010707Y010503D02*
X010607Y010503D01*
X009599Y010996D02*
X009449Y010996D01*
X009449Y011094D02*
X009527Y011094D01*
X009492Y011193D02*
X009449Y011193D01*
X009492Y011291D02*
X009383Y011291D01*
X009520Y011390D02*
X009233Y011390D01*
X009233Y011488D02*
X009581Y011488D01*
X008853Y011488D02*
X008720Y011488D01*
X008818Y011390D02*
X008853Y011390D01*
X007556Y010602D02*
X006859Y010602D01*
X006579Y010799D02*
X005921Y010799D01*
X005953Y010897D02*
X006480Y010897D01*
X008169Y009631D02*
X008169Y009631D01*
X008182Y009617D02*
X008853Y009617D01*
X008853Y009518D02*
X008269Y009518D01*
X008357Y009420D02*
X008853Y009420D01*
X008853Y009321D02*
X008395Y009321D01*
X008376Y009398D02*
X008376Y009398D01*
X008419Y009223D02*
X008853Y009223D01*
X008853Y009124D02*
X008443Y009124D01*
X008450Y009096D02*
X008450Y009096D01*
X008433Y009026D02*
X008853Y009026D01*
X008853Y008927D02*
X008408Y008927D01*
X008384Y008829D02*
X008883Y008829D01*
X008923Y008730D02*
X008319Y008730D01*
X008376Y008794D02*
X008376Y008794D01*
X008232Y008632D02*
X008923Y008632D01*
X008923Y008533D02*
X008095Y008533D01*
X007570Y008488D02*
X007570Y008488D01*
X007032Y007745D02*
X006859Y007745D01*
X006859Y007647D02*
X007131Y007647D01*
X007229Y007548D02*
X006859Y007548D01*
X006859Y007450D02*
X007328Y007450D01*
X007426Y007351D02*
X006859Y007351D01*
X006859Y007253D02*
X007525Y007253D01*
X007623Y007154D02*
X006844Y007154D01*
X008267Y007548D02*
X011533Y007548D01*
X011435Y007450D02*
X008365Y007450D01*
X008464Y007351D02*
X011336Y007351D01*
X011238Y007253D02*
X008562Y007253D01*
X008661Y007154D02*
X011139Y007154D01*
X011578Y007056D02*
X011751Y007056D01*
X011720Y006982D02*
X011720Y006811D01*
X011785Y006653D01*
X011852Y006586D01*
X008729Y006586D01*
X008609Y006706D01*
X008729Y006706D01*
X011229Y006706D01*
X011340Y006817D01*
X011729Y007206D01*
X011852Y007206D01*
X011785Y007140D01*
X011720Y006982D01*
X011720Y006957D02*
X011480Y006957D01*
X011381Y006859D02*
X011720Y006859D01*
X011741Y006760D02*
X011283Y006760D01*
X011782Y006662D02*
X008653Y006662D01*
X007191Y006071D02*
X007087Y006071D01*
X009734Y005677D02*
X010204Y005677D01*
X012100Y005283D02*
X012200Y005283D01*
X012200Y005184D02*
X012100Y005184D01*
X012100Y005086D02*
X012200Y005086D01*
X012383Y005283D02*
X013417Y005283D01*
X013303Y005184D02*
X012497Y005184D01*
X012558Y005086D02*
X013242Y005086D01*
X013209Y004987D02*
X012591Y004987D01*
X012589Y004790D02*
X013211Y004790D01*
X013249Y004692D02*
X012551Y004692D01*
X011749Y004692D02*
X010734Y004692D01*
X010750Y004790D02*
X011711Y004790D01*
X013600Y005086D02*
X013700Y005086D01*
X013700Y005184D02*
X013600Y005184D01*
X013600Y005283D02*
X013700Y005283D01*
X013768Y005480D02*
X014772Y005480D01*
X014848Y005562D02*
X014848Y005562D01*
X014848Y005578D02*
X013940Y005578D01*
X014025Y005677D02*
X014848Y005677D01*
X014848Y005775D02*
X014065Y005775D01*
X014080Y005874D02*
X014848Y005874D01*
X014861Y005972D02*
X014080Y005972D01*
X014043Y006071D02*
X014914Y006071D01*
X015013Y006169D02*
X013985Y006169D01*
X013877Y006268D02*
X015111Y006268D01*
X015210Y006366D02*
X013449Y006366D01*
X013350Y006465D02*
X015308Y006465D01*
X015735Y006071D02*
X016627Y006071D01*
X016725Y006169D02*
X016333Y006169D01*
X016432Y006268D02*
X016824Y006268D01*
X016922Y006366D02*
X016530Y006366D01*
X016629Y006465D02*
X017021Y006465D01*
X017119Y006563D02*
X016727Y006563D01*
X016826Y006662D02*
X017218Y006662D01*
X016924Y006760D02*
X017606Y006760D01*
X017772Y006859D02*
X017023Y006859D01*
X017121Y006957D02*
X018927Y006957D01*
X019692Y006859D02*
X020235Y006859D01*
X020235Y006957D02*
X019716Y006957D01*
X019750Y007056D02*
X020235Y007056D01*
X020235Y007154D02*
X019750Y007154D01*
X019750Y007253D02*
X020235Y007253D01*
X020235Y007351D02*
X019750Y007351D01*
X019750Y007450D02*
X020235Y007450D01*
X020235Y007548D02*
X019750Y007548D01*
X019750Y007647D02*
X020235Y007647D01*
X020235Y007745D02*
X019750Y007745D01*
X019707Y007844D02*
X020235Y007844D01*
X020235Y007942D02*
X019701Y007942D01*
X019750Y008041D02*
X020209Y008041D01*
X020110Y008139D02*
X019750Y008139D01*
X017864Y007647D02*
X017767Y007647D01*
X017767Y007548D02*
X017864Y007548D01*
X017864Y007450D02*
X017767Y007450D01*
X017449Y007253D02*
X017404Y007253D01*
X017456Y007154D02*
X017318Y007154D01*
X017220Y007056D02*
X017555Y007056D01*
X017447Y006071D02*
X017683Y006071D01*
X016528Y005972D02*
X015636Y005972D01*
X015538Y005874D02*
X016430Y005874D01*
X016331Y005775D02*
X015439Y005775D01*
X015428Y005677D02*
X016233Y005677D01*
X016134Y005578D02*
X015428Y005578D01*
X015428Y005562D02*
X015428Y005562D01*
X015504Y005480D02*
X015796Y005480D01*
X015796Y005381D02*
X015504Y005381D01*
X015504Y005283D02*
X015796Y005283D01*
X015796Y005184D02*
X015504Y005184D01*
X015504Y005086D02*
X015796Y005086D01*
X015796Y004987D02*
X015504Y004987D01*
X015488Y004889D02*
X015812Y004889D01*
X016511Y004889D02*
X017449Y004889D01*
X017449Y004987D02*
X016528Y004987D01*
X017496Y004790D02*
X014089Y004790D01*
X014051Y004692D02*
X021150Y004692D01*
X020158Y004889D02*
X020142Y004889D01*
X020142Y004987D02*
X020158Y004987D01*
X020158Y005086D02*
X020142Y005086D01*
X020142Y005184D02*
X020158Y005184D01*
X020158Y005283D02*
X020142Y005283D01*
X020235Y005972D02*
X019731Y005972D01*
X019750Y006071D02*
X020235Y006071D01*
X020235Y006169D02*
X019750Y006169D01*
X019750Y006268D02*
X020235Y006268D01*
X020235Y006366D02*
X019750Y006366D01*
X019750Y006465D02*
X020235Y006465D01*
X020235Y006563D02*
X019750Y006563D01*
X019750Y006662D02*
X020235Y006662D01*
X020235Y006760D02*
X019750Y006760D01*
X011800Y007154D02*
X011677Y007154D01*
X010272Y007745D02*
X009531Y007745D01*
X009577Y007844D02*
X010205Y007844D01*
X013100Y011981D02*
X013200Y011981D01*
X013200Y012079D02*
X013100Y012079D01*
X013100Y012178D02*
X013200Y012178D01*
X013200Y012276D02*
X013100Y012276D01*
X012894Y012276D02*
X012840Y012276D01*
X012460Y012276D02*
X012378Y012276D01*
X000762Y014166D02*
X000663Y014125D01*
X000421Y013883D01*
X000380Y013784D01*
X000380Y014166D01*
X000762Y014166D01*
X000717Y014148D02*
X000380Y014148D01*
X000380Y014049D02*
X000587Y014049D01*
X000488Y013951D02*
X000380Y013951D01*
X000380Y013852D02*
X000408Y013852D01*
D39*
X015650Y012166D02*
X016201Y012166D01*
X016201Y013596D01*
X015650Y011566D02*
X015650Y010546D01*
X016560Y009726D02*
X016560Y009396D01*
X016560Y008595D01*
X016162Y008197D01*
X016162Y007597D01*
X017150Y007796D02*
X017150Y007396D01*
X016150Y006396D01*
X015650Y006396D01*
X015138Y005884D01*
X015138Y005195D01*
X016162Y005195D02*
X017413Y006446D01*
X018200Y006446D01*
X017150Y007796D02*
X017760Y008406D01*
X018200Y008406D01*
X026650Y008396D02*
X026650Y010396D01*
X027150Y010896D01*
X027870Y010896D01*
X028650Y010896D01*
X029050Y011296D01*
X029050Y012346D01*
X030150Y010062D02*
X030150Y009896D01*
X031900Y009896D01*
X032150Y010146D01*
X030150Y009896D02*
X027960Y009896D01*
X027870Y009986D01*
X026650Y008396D02*
X027150Y007896D01*
X027870Y007896D01*
X028150Y006896D02*
X029150Y007896D01*
X030150Y007896D01*
X030150Y008062D01*
X030150Y007896D02*
X030550Y007896D01*
X031300Y008646D01*
X032150Y008646D01*
X032150Y007146D02*
X030250Y005246D01*
X030250Y005196D01*
X028150Y006896D02*
X027960Y006896D01*
X027870Y006986D01*
M02*
